<?xml version="1.0" encoding="UTF-8" standalone="no"?>
<svg
   xmlns:dc="http://purl.org/dc/elements/1.1/"
   xmlns:cc="http://creativecommons.org/ns#"
   xmlns:rdf="http://www.w3.org/1999/02/22-rdf-syntax-ns#"
   xmlns:svg="http://www.w3.org/2000/svg"
   xmlns="http://www.w3.org/2000/svg"
   xmlns:sodipodi="http://sodipodi.sourceforge.net/DTD/sodipodi-0.dtd"
   xmlns:inkscape="http://www.inkscape.org/namespaces/inkscape"
   version="1.1"
   x="0px"
   y="0px"
   viewBox="0 0 75.400002 78.576408"
   xml:space="preserve"
   id="svg2"
   inkscape:version="0.91 r13725"
   sodipodi:docname="bomb_text.svg"
   width="75.400002"
   height="78.576408"><metadata
     id="metadata28"><rdf:RDF><cc:Work
         rdf:about=""><dc:format>image/svg+xml</dc:format><dc:type
           rdf:resource="http://purl.org/dc/dcmitype/StillImage" /><dc:title></dc:title></cc:Work></rdf:RDF></metadata><defs
     id="defs26" /><sodipodi:namedview
     pagecolor="#ffffff"
     bordercolor="#666666"
     borderopacity="1"
     objecttolerance="10"
     gridtolerance="10"
     guidetolerance="10"
     inkscape:pageopacity="0"
     inkscape:pageshadow="2"
     inkscape:window-width="1108"
     inkscape:window-height="796"
     id="namedview24"
     showgrid="false"
     inkscape:zoom="6.2543457"
     inkscape:cx="42.790211"
     inkscape:cy="26.79999"
     inkscape:window-x="356"
     inkscape:window-y="191"
     inkscape:window-maximized="0"
     inkscape:current-layer="svg2"
     fit-margin-top="0"
     fit-margin-left="0"
     fit-margin-right="0"
     fit-margin-bottom="0" /><path
     d="m 32.2,33.676405 0,-3.9 c 0,-1.1 -0.9,-2 -2,-2 l -5.6,0 c 0,-2.2 0.3,-5.1 1.8,-6.9 1.1,-1.3 2.6,-1.9 4.7,-1.9 3.1,0 6.1,1.2 8.9,2.3 5.4,2.2 11.1,4.4 16.9,-1.6 0.6,-0.6 0.6,-1.5 0,-2.1 -0.6,-0.6 -1.5,-0.6 -2.1,0 -4.4,4.6 -8.5,3 -13.6,0.9 -3.1,-1.3 -6.4,-2.6 -10,-2.6 -3,0 -5.3,1 -7,3 -2.2,2.6 -2.5,6.3 -2.5,8.8 l -5.1,0 c -1.1,0 -2,0.9 -2,2 l 0,3.9 c -8.6,3.6 -14.6,12 -14.6,21.7 0,12.9 10.4,23.3 23.3,23.3 12.9,0 23.4,-10.4 23.4,-23.3 0,-9.7 -6,-18.1 -14.5,-21.6 z m -11.6,35.9 c -0.2,0.6 -0.8,1.1 -1.4,1.1 -0.1,0 -0.3,0 -0.4,-0.1 -6.8,-2 -11.3,-8.2 -11.3,-15.3 0,-3.5 1.1,-6.9 3.3,-9.7 0.5,-0.7 1.4,-0.8 2.1,-0.3 0.7,0.5 0.8,1.4 0.3,2.1 -1.7,2.3 -2.7,5 -2.7,7.9 0,5.7 3.8,10.8 9.2,12.4 0.7,0.2 1.2,1.1 0.9,1.9 z"
     id="path4"
     inkscape:connector-curvature="0" /><path
     d="m 70,3.7764047 c 0.5,-0.6 0.5,-1.6 -0.2,-2.1 -0.6,-0.5 -1.6,-0.5 -2.1,0.2 L 59.1,11.976405 c -0.5,0.6 -0.5,1.6 0.2,2.1 0.3,0.2 0.6,0.4 1,0.4 0.4,0 0.8,-0.2 1.1,-0.5 L 70,3.7764047 Z"
     id="path6"
     inkscape:connector-curvature="0" /><path
     d="m 49,25.576405 -5.4,6.4 c -0.5,0.6 -0.5,1.6 0.2,2.1 0.3,0.2 0.6,0.4 1,0.4 0.4,0 0.8,-0.2 1.1,-0.5 l 5.4,-6.4 c 0.5,-0.6 0.5,-1.6 -0.2,-2.1 -0.6,-0.6 -1.6,-0.5 -2.1,0.1 z"
     id="path8"
     inkscape:connector-curvature="0" /><path
     d="m 48.4,3.1764047 c 0,0 0,0 0,0 l 3.9,8.7000003 c 0,0 0,0 0,0 l 0.5,1.1 c 0.3,0.6 0.8,0.9 1.4,0.9 0.2,0 0.4,0 0.6,-0.1 0.8,-0.3 1.1,-1.2 0.7,-2 l -0.5,-1.1 c 0,0 0,0 0,0 L 51.1,1.9764047 c 0,0 0,0 0,0 L 50.6,0.87640469 c -0.3,-0.8 -1.2,-1.1 -2,-0.7 -0.8,0.3 -1.1,1.20000001 -0.7,2.00000001 l 0.5,1 z"
     id="path10"
     inkscape:connector-curvature="0" /><path
     d="m 63.2,21.676405 c -0.6,-0.6 -1.6,-0.5 -2.1,0.1 -0.6,0.6 -0.5,1.6 0.1,2.1 l 9.7,9.2 c 0.3,0.3 0.7,0.4 1,0.4 0.4,0 0.8,-0.2 1.1,-0.5 0.6,-0.6 0.5,-1.6 -0.1,-2.1 l -9.7,-9.2 z"
     id="path12"
     inkscape:connector-curvature="0" /><path
     d="m 73.9,15.876405 -10.5,0 c -0.8,0 -1.5,0.7 -1.5,1.5 0,0.8 0.7,1.5 1.5,1.5 l 10.5,0 c 0.8,0 1.5,-0.7 1.5,-1.5 0,-0.8 -0.7,-1.5 -1.5,-1.5 z"
     id="path14"
     inkscape:connector-curvature="0" /><path
     d="m 38.6,10.976405 11.6,5.4 c 0.2,0.1 0.4,0.1 0.6,0.1 0.6,0 1.1,-0.3 1.4,-0.9 0.4,-0.8 0,-1.6 -0.7,-2 L 39.9,8.2764047 c -0.7,-0.4 -1.6,0 -2,0.7 -0.3,0.8 0,1.6000003 0.7,2.0000003 z"
     id="path16"
     inkscape:connector-curvature="0" /><path
     d="m 57.2,24.076405 c -0.8,0 -1.5,0.7 -1.5,1.5 l 0,11.3 c 0,0.8 0.7,1.5 1.5,1.5 0.8,0 1.5,-0.7 1.5,-1.5 l 0,-11.3 c 0,-0.9 -0.6,-1.5 -1.5,-1.5 z"
     id="path18"
     inkscape:connector-curvature="0" /></svg>