<?xml version="1.0" encoding="UTF-8" standalone="no"?>
<svg
   xmlns:dc="http://purl.org/dc/elements/1.1/"
   xmlns:cc="http://creativecommons.org/ns#"
   xmlns:rdf="http://www.w3.org/1999/02/22-rdf-syntax-ns#"
   xmlns:svg="http://www.w3.org/2000/svg"
   xmlns="http://www.w3.org/2000/svg"
   xmlns:sodipodi="http://sodipodi.sourceforge.net/DTD/sodipodi-0.dtd"
   xmlns:inkscape="http://www.inkscape.org/namespaces/inkscape"
   version="1.1"
   x="0px"
   y="0px"
   viewBox="0 0 60.599998 77"
   xml:space="preserve"
   id="svg2"
   inkscape:version="0.91 r13725"
   sodipodi:docname="happy_mac.svg"
   width="60.599998"
   height="77"><metadata
     id="metadata28"><rdf:RDF><cc:Work
         rdf:about=""><dc:format>image/svg+xml</dc:format><dc:type
           rdf:resource="http://purl.org/dc/dcmitype/StillImage" /><dc:title></dc:title></cc:Work></rdf:RDF></metadata><defs
     id="defs26" /><sodipodi:namedview
     pagecolor="#ffffff"
     bordercolor="#666666"
     borderopacity="1"
     objecttolerance="10"
     gridtolerance="10"
     guidetolerance="10"
     inkscape:pageopacity="0"
     inkscape:pageshadow="2"
     inkscape:window-width="700"
     inkscape:window-height="480"
     id="namedview24"
     showgrid="false"
     inkscape:zoom="2.46325"
     inkscape:cx="30.3"
     inkscape:cy="26"
     inkscape:window-x="0"
     inkscape:window-y="0"
     inkscape:window-maximized="0"
     inkscape:current-layer="svg2"
     fit-margin-top="0"
     fit-margin-left="0"
     fit-margin-right="0"
     fit-margin-bottom="0" /><path
     d="M 54.1,0 6.5,0 C 2.9,0 0,2.9 0,6.5 l 0,57.7 c 0,0.8 0.7,1.5 1.5,1.5 l 1.8,0 0,9.8 C 3.3,76.3 4,77 4.8,77 l 52.1,0 c 0.8,0 1.5,-0.7 1.5,-1.5 l 0,-9.8 0.7,0 c 0.8,0 1.5,-0.7 1.5,-1.5 l 0,-57.7 C 60.6,2.9 57.7,0 54.1,0 Z m 1.3,74 -49.1,0 0,-8.3 49.1,0 0,8.3 z m 2.2,-11.3 -0.7,0 -52.1,0 L 3,62.7 3,6.5 C 3,4.6 4.6,3 6.5,3 l 47.6,0 c 1.9,0 3.5,1.6 3.5,3.5 l 0,56.2 z"
     id="path4"
     inkscape:connector-curvature="0" /><path
     d="m 49.4,7.5 -38.2,0 C 9.3,7.5 7.7,9.1 7.7,11 l 0,28 c 0,1.9 1.6,3.5 3.5,3.5 l 38.2,0 c 1.9,0 3.5,-1.6 3.5,-3.5 l 0,-28 C 52.9,9.1 51.3,7.5 49.4,7.5 Z M 49.9,39 c 0,0.3 -0.2,0.5 -0.5,0.5 l -38.2,0 c -0.3,0 -0.5,-0.2 -0.5,-0.5 l 0,-28 c 0,-0.3 0.2,-0.5 0.5,-0.5 l 38.2,0 c 0.3,0 0.5,0.2 0.5,0.5 l 0,28 z"
     id="path6"
     inkscape:connector-curvature="0" /><path
     d="m 50,52.3 -12.7,0 c -0.8,0 -1.5,0.7 -1.5,1.5 0,0.8 0.7,1.5 1.5,1.5 l 12.7,0 c 0.8,0 1.5,-0.7 1.5,-1.5 0,-0.8 -0.7,-1.5 -1.5,-1.5 z"
     id="path8"
     inkscape:connector-curvature="0" /><path
     d="m 12.3,54.3 -3.6,0 c -0.8,0 -1.5,0.7 -1.5,1.5 0,0.8 0.7,1.5 1.5,1.5 l 3.6,0 c 0.8,0 1.5,-0.7 1.5,-1.5 0,-0.8 -0.7,-1.5 -1.5,-1.5 z"
     id="path10"
     inkscape:connector-curvature="0" /><path
     d="m 23.1,19.6 0,-1.8 c 0,-1.1 -0.9,-2 -2,-2 -1.1,0 -2,0.9 -2,2 l 0,1.8 c 0,1.1 0.9,2 2,2 1.1,0 2,-0.9 2,-2 z"
     id="path12"
     inkscape:connector-curvature="0" /><path
     d="m 37.4,15.8 c -1.1,0 -2,0.9 -2,2 l 0,1.8 c 0,1.1 0.9,2 2,2 1.1,0 2,-0.9 2,-2 l 0,-1.8 c 0,-1.1 -0.9,-2 -2,-2 z"
     id="path14"
     inkscape:connector-curvature="0" /><path
     d="m 27.9,28.1 2.2,0 c 0.8,0 1.5,-0.7 1.5,-1.5 l 0,-8.8 c 0,-0.8 -0.7,-1.5 -1.5,-1.5 -0.8,0 -1.5,0.7 -1.5,1.5 l 0,7.3 -0.7,0 c -0.8,0 -1.5,0.7 -1.5,1.5 0,0.8 0.7,1.5 1.5,1.5 z"
     id="path16"
     inkscape:connector-curvature="0" /><path
     d="m 35,31.1 c -3.9,3.1 -7.5,3.1 -11.4,0 -0.6,-0.5 -1.6,-0.4 -2.1,0.2 -0.5,0.6 -0.4,1.6 0.2,2.1 2.5,2 5,3 7.6,3 2.5,0 5.1,-1 7.6,-3 0.6,-0.5 0.8,-1.5 0.2,-2.1 -0.5,-0.6 -1.5,-0.7 -2.1,-0.2 z"
     id="path18"
     inkscape:connector-curvature="0" /></svg>