<?xml version="1.0" encoding="UTF-8" standalone="no"?>
<svg width="32px" height="32px" viewBox="0 0 32 32" version="1.1" xmlns="http://www.w3.org/2000/svg" xmlns:xlink="http://www.w3.org/1999/xlink" xmlns:sketch="http://www.bohemiancoding.com/sketch/ns">
    <!-- Generator: Sketch 3.4.2 (15855) - http://www.bohemiancoding.com/sketch -->
    <title>linkedin</title>
    <desc>Created with Sketch.</desc>
    <defs></defs>
    <g id="Page-1" stroke="none" stroke-width="1" fill="none" fill-rule="evenodd" sketch:type="MSPage">
        <g id="linkedin" sketch:type="MSArtboardGroup" fill="#222222">
            <path d="M22.9329947,22.5092093 L20.1583901,22.5092093 L20.1583901,17.8788345 C20.1583901,16.8025809 19.7565538,16.0679831 18.7531069,16.0679831 C17.9862533,16.0679831 17.5301921,16.5635031 17.3292746,17.0419278 C17.256213,17.2126211 17.2373778,17.4519665 17.2373778,17.6910443 L17.2373778,22.5092093 L14.4633442,22.5092093 L14.4633442,16.8196777 C14.4633442,15.7776163 14.4270989,14.9062498 14.3902827,14.1542875 L16.7998685,14.1542875 L16.9277244,15.3160209 L16.9822355,15.3160209 C17.3475403,14.7692133 18.2416804,13.9664973 19.7391452,13.9664973 C21.5642429,13.9664973 22.9329947,15.1111353 22.9329947,17.5713723 C22.9329947,17.5713723 22.9329947,15.1111353 22.9329947,17.5713723 L22.9329947,22.5092093 L22.9329947,22.5092093 L22.9329947,22.5092093 Z M11.5163022,12.542712 C10.6673132,12.542712 10.1189267,11.9058827 10.1189267,11.1190733 C10.1189267,10.3132236 10.6850123,9.69514133 11.5514227,9.69514133 C12.4186646,9.69514133 12.9493521,10.3132236 12.9664973,11.1190733 C12.9664973,11.9058827 12.4186646,12.542712 11.5163022,12.542712 L11.5163022,12.542712 L11.5163022,12.542712 L11.5163022,12.542712 Z M12.9664973,22.5092093 L10.1189267,22.5092093 L10.1189267,13.9664973 L12.9664973,13.9664973 L12.9664973,22.5092093 L12.9664973,22.5092093 L12.9664973,22.5092093 Z M15.814068,4 C8.73696503,4 3,9.73723127 3,16.814068 C3,23.8914386 8.73696503,29.628136 15.814068,29.628136 C22.8917049,29.628136 28.628136,23.8914386 28.628136,16.814068 C28.628136,9.73723127 22.8917049,4 15.814068,4 L15.814068,4 L15.814068,4 L15.814068,4 Z" id="Fill-252" sketch:type="MSShapeGroup"></path>
        </g>
    </g>
</svg>