<?xml version="1.0" encoding="UTF-8" standalone="no"?>
<svg
   xmlns:dc="http://purl.org/dc/elements/1.1/"
   xmlns:cc="http://creativecommons.org/ns#"
   xmlns:rdf="http://www.w3.org/1999/02/22-rdf-syntax-ns#"
   xmlns:svg="http://www.w3.org/2000/svg"
   xmlns="http://www.w3.org/2000/svg"
   xmlns:sodipodi="http://sodipodi.sourceforge.net/DTD/sodipodi-0.dtd"
   xmlns:inkscape="http://www.inkscape.org/namespaces/inkscape"
   version="1.1"
   x="0px"
   y="0px"
   viewBox="0 0 59.799999 76.300003"
   xml:space="preserve"
   id="svg2"
   inkscape:version="0.91 r13725"
   sodipodi:docname="resume.svg"
   width="59.799999"
   height="76.300003"><metadata
     id="metadata90"><rdf:RDF><cc:Work
         rdf:about=""><dc:format>image/svg+xml</dc:format><dc:type
           rdf:resource="http://purl.org/dc/dcmitype/StillImage" /><dc:title></dc:title></cc:Work></rdf:RDF></metadata><defs
     id="defs88" /><sodipodi:namedview
     pagecolor="#ffffff"
     bordercolor="#666666"
     borderopacity="1"
     objecttolerance="10"
     gridtolerance="10"
     guidetolerance="10"
     inkscape:pageopacity="0"
     inkscape:pageshadow="2"
     inkscape:window-width="700"
     inkscape:window-height="480"
     id="namedview86"
     showgrid="false"
     inkscape:zoom="2.46325"
     inkscape:cx="29.9"
     inkscape:cy="25.7"
     inkscape:window-x="0"
     inkscape:window-y="0"
     inkscape:window-maximized="0"
     inkscape:current-layer="svg2"
     fit-margin-top="0"
     fit-margin-left="0"
     fit-margin-right="0"
     fit-margin-bottom="0" /><path
     d="m 59.8,14.8 c 0,-0.1 0,-0.1 -0.1,-0.2 0,0 0,-0.1 0,-0.1 0,-0.1 -0.1,-0.1 -0.1,-0.2 0,0 0,0 0,0 -0.1,-0.1 -0.1,-0.2 -0.2,-0.2 l 0,0 -13.7,-13.7 0,0 C 45.6,0.3 45.6,0.3 45.5,0.2 c 0,0 0,0 0,0 -0.1,0 -0.1,-0.1 -0.2,-0.1 0,0 -0.1,0 -0.1,0 -0.1,0 -0.1,0 -0.2,-0.1 -0.1,0 -0.2,0 -0.3,0 L 1.5,0 C 0.7,0 0,0.7 0,1.5 l 0,73.3 c 0,0.8 0.7,1.5 1.5,1.5 l 56.8,0 c 0.8,0 1.5,-0.7 1.5,-1.5 l 0,-59.7 c 0,-0.1 0,-0.2 0,-0.3 z m -13.7,-9.7 8.6,8.6 -8.6,0 0,-8.6 z M 56.8,73.2 3,73.2 3,3 l 40.1,0 0,7 -8.4,0 0,2.6 8.4,0 0,2.5 c 0,0.8 0.7,1.5 1.5,1.5 l 12.2,0 0,56.6 z"
     id="path4"
     inkscape:connector-curvature="0" /><rect
     x="10.699999"
     y="64.400002"
     width="6.9000001"
     height="2.5999999"
     id="rect6" /><rect
     x="19.4"
     y="64.400002"
     width="12"
     height="2.5999999"
     id="rect8" /><rect
     x="33"
     y="64.400002"
     width="8.6000004"
     height="2.5999999"
     id="rect10" /><rect
     x="45.099998"
     y="64.400002"
     width="5.0999999"
     height="2.5999999"
     id="rect12" /><rect
     x="10.699999"
     y="59.400002"
     width="8.6000004"
     height="2.5999999"
     id="rect14" /><rect
     x="21.1"
     y="59.400002"
     width="6.8000002"
     height="2.5999999"
     id="rect16" /><rect
     x="31.4"
     y="59.400002"
     width="6.9000001"
     height="2.5999999"
     id="rect18" /><rect
     x="40"
     y="59.400002"
     width="10.3"
     height="2.5999999"
     id="rect20" /><rect
     x="14.199999"
     y="54.299995"
     width="10.3"
     height="2.5999999"
     id="rect22" /><rect
     x="26.199999"
     y="54.299995"
     width="6.8000002"
     height="2.5999999"
     id="rect24" /><rect
     x="34.800003"
     y="54.299995"
     width="5"
     height="2.5999999"
     id="rect26" /><rect
     x="41.700001"
     y="54.299995"
     width="8.6000004"
     height="2.5999999"
     id="rect28" /><rect
     x="10.699999"
     y="47.299999"
     width="8.6000004"
     height="2.5999999"
     id="rect30" /><rect
     x="21.1"
     y="47.299999"
     width="11.9"
     height="2.5999999"
     id="rect32" /><rect
     x="34.800003"
     y="47.299999"
     width="10.3"
     height="2.5999999"
     id="rect34" /><rect
     x="10.699999"
     y="42.299999"
     width="5.0999999"
     height="2.5999999"
     id="rect36" /><rect
     x="17.6"
     y="42.299999"
     width="8.6000004"
     height="2.5999999"
     id="rect38" /><rect
     x="27.800001"
     y="42.299999"
     width="10.3"
     height="2.5999999"
     id="rect40" /><rect
     x="40"
     y="42.299999"
     width="8.5"
     height="2.5999999"
     id="rect42" /><rect
     x="10.699999"
     y="37.199997"
     width="8.6000004"
     height="2.5999999"
     id="rect44" /><rect
     x="21.1"
     y="37.199997"
     width="10.2"
     height="2.5999999"
     id="rect46" /><rect
     x="33"
     y="37.199997"
     width="8.6000004"
     height="2.5999999"
     id="rect48" /><rect
     x="45.099998"
     y="37.199997"
     width="3.3"
     height="2.5999999"
     id="rect50" /><rect
     x="14.199999"
     y="32.099998"
     width="10.2"
     height="2.5999999"
     id="rect52" /><rect
     x="26.199999"
     y="32.099998"
     width="8.6000004"
     height="2.5999999"
     id="rect54" /><rect
     x="38.200001"
     y="32.099998"
     width="10.2"
     height="2.5999999"
     id="rect56" /><rect
     x="10.799999"
     y="20.1"
     width="10.2"
     height="2.5999999"
     id="rect58" /><rect
     x="24.4"
     y="20.1"
     width="13.8"
     height="2.5999999"
     id="rect60" /><rect
     x="40"
     y="20.1"
     width="10.2"
     height="2.5999999"
     id="rect62" /><rect
     x="14.199999"
     y="10"
     width="6.9000001"
     height="2.5999999"
     id="rect64" /><rect
     x="24.499998"
     y="10"
     width="8.5"
     height="2.5999999"
     id="rect66" /><rect
     x="19.300001"
     y="15"
     width="6.9000001"
     height="2.5999999"
     id="rect68" /><rect
     x="10.799999"
     y="15"
     width="6.9000001"
     height="2.5999999"
     id="rect70" /><rect
     x="27.9"
     y="15"
     width="12"
     height="2.5999999"
     id="rect72" /><rect
     x="19.300001"
     y="25.1"
     width="6.9000001"
     height="2.5999999"
     id="rect74" /><rect
     x="10.799999"
     y="25.1"
     width="6.9000001"
     height="2.5999999"
     id="rect76" /><rect
     x="27.800001"
     y="25.1"
     width="7"
     height="2.5999999"
     id="rect78" /><rect
     x="38.200001"
     y="25.1"
     width="8.6000004"
     height="2.5999999"
     id="rect80" /></svg>