<?xml version="1.0" encoding="UTF-8" standalone="no"?>
<svg
   xmlns:dc="http://purl.org/dc/elements/1.1/"
   xmlns:cc="http://creativecommons.org/ns#"
   xmlns:rdf="http://www.w3.org/1999/02/22-rdf-syntax-ns#"
   xmlns:svg="http://www.w3.org/2000/svg"
   xmlns="http://www.w3.org/2000/svg"
   xmlns:sodipodi="http://sodipodi.sourceforge.net/DTD/sodipodi-0.dtd"
   xmlns:inkscape="http://www.inkscape.org/namespaces/inkscape"
   version="1.1"
   x="0px"
   y="0px"
   viewBox="0 0 59.799999 76.300003"
   xml:space="preserve"
   id="svg2"
   inkscape:version="0.91 r13725"
   sodipodi:docname="rich_text.svg"
   width="59.799999"
   height="76.300003"><metadata
     id="metadata46"><rdf:RDF><cc:Work
         rdf:about=""><dc:format>image/svg+xml</dc:format><dc:type
           rdf:resource="http://purl.org/dc/dcmitype/StillImage" /><dc:title></dc:title></cc:Work></rdf:RDF></metadata><defs
     id="defs44" /><sodipodi:namedview
     pagecolor="#ffffff"
     bordercolor="#666666"
     borderopacity="1"
     objecttolerance="10"
     gridtolerance="10"
     guidetolerance="10"
     inkscape:pageopacity="0"
     inkscape:pageshadow="2"
     inkscape:window-width="700"
     inkscape:window-height="480"
     id="namedview42"
     showgrid="false"
     inkscape:zoom="2.46325"
     inkscape:cx="29.9"
     inkscape:cy="25.699994"
     inkscape:window-x="516"
     inkscape:window-y="229"
     inkscape:window-maximized="0"
     inkscape:current-layer="svg2"
     fit-margin-top="0"
     fit-margin-left="0"
     fit-margin-right="0"
     fit-margin-bottom="0" /><path
     d="m 59.8,14.8 c 0,-0.1 0,-0.1 -0.1,-0.2 0,0 0,-0.1 0,-0.1 0,-0.1 -0.1,-0.1 -0.1,-0.2 0,0 0,0 0,0 -0.1,-0.1 -0.1,-0.2 -0.2,-0.2 l 0,0 -13.7,-13.7 0,0 C 45.6,0.3 45.6,0.3 45.5,0.2 c 0,0 0,0 0,0 -0.1,0 -0.1,-0.1 -0.2,-0.1 0,0 -0.1,0 -0.1,0 -0.1,0 -0.1,0 -0.2,-0.1 -0.1,0 -0.2,0 -0.3,0 L 1.5,0 C 0.7,0 0,0.7 0,1.5 l 0,73.3 c 0,0.8 0.7,1.5 1.5,1.5 l 56.8,0 c 0.8,0 1.5,-0.7 1.5,-1.5 l 0,-59.7 c 0,-0.1 0,-0.2 0,-0.3 z m -13.7,-9.7 8.6,8.6 -8.6,0 0,-8.6 z M 56.8,73.2 3,73.2 3,3 l 40.1,0 0,12.1 c 0,0.8 0.7,1.5 1.5,1.5 l 12.2,0 0,56.6 z"
     id="path4"
     inkscape:connector-curvature="0" /><path
     d="m 38.5,23.1 0,-5.7 c 0,-0.8 -0.7,-1.5 -1.5,-1.5 l -14.5,0 c -0.8,0 -1.5,0.7 -1.5,1.5 l 0,14.5 c 0,0.8 0.7,1.5 1.5,1.5 l 5.7,0 0,5.7 c 0,0.8 0.7,1.5 1.5,1.5 l 14.5,0 c 0.8,0 1.5,-0.7 1.5,-1.5 l 0,-14.5 c 0,-0.8 -0.7,-1.5 -1.5,-1.5 l -5.7,0 z m -10.2,1.5 0,5.7 -4.2,0 0,-11.4 11.5,0 0,4.2 -5.7,0 c -1,0 -1.6,0.7 -1.6,1.5 z m 14.5,13 -11.5,0 0,-4.2 0,-1.5 0,-1.5 0,-4.3 4.2,0 1.5,0 1.5,0 4.2,0 0,11.5 z"
     id="path6"
     inkscape:connector-curvature="0" /><path
     d="m 22.6,51.7 c -4.9,0 -8.9,4 -8.9,8.9 0,4.9 4,8.9 8.9,8.9 4.9,0 8.9,-4 8.9,-8.9 0,-4.9 -4,-8.9 -8.9,-8.9 z m 0,14.7 c -3.2,0 -5.9,-2.6 -5.9,-5.9 0,-3.2 2.6,-5.9 5.9,-5.9 3.2,0 5.9,2.6 5.9,5.9 0,3.3 -2.7,5.9 -5.9,5.9 z"
     id="path8"
     inkscape:connector-curvature="0" /><circle
     cx="8.1000004"
     cy="10.200001"
     r="1.7"
     id="circle10" /><circle
     cx="22.499998"
     cy="10.200001"
     r="1.7"
     id="circle12" /><circle
     cx="36.900002"
     cy="10.200001"
     r="1.7"
     id="circle14" /><circle
     cx="8.1000004"
     cy="24.6"
     r="1.7"
     id="circle16" /><circle
     cx="51.400002"
     cy="24.6"
     r="1.7"
     id="circle18" /><circle
     cx="8.1000004"
     cy="39.099998"
     r="1.7"
     id="circle20" /><circle
     cx="22.499998"
     cy="39.099998"
     r="1.7"
     id="circle22" /><circle
     cx="51.400002"
     cy="39.099998"
     r="1.7"
     id="circle24" /><circle
     cx="8.1000004"
     cy="53.5"
     r="1.7"
     id="circle26" /><circle
     cx="36.900002"
     cy="53.5"
     r="1.7"
     id="circle28" /><circle
     cx="51.400002"
     cy="53.5"
     r="1.7"
     id="circle30" /><circle
     cx="8.1000004"
     cy="67.900002"
     r="1.7"
     id="circle32" /><circle
     cx="36.900002"
     cy="67.900002"
     r="1.7"
     id="circle34" /><circle
     cx="51.400002"
     cy="67.900002"
     r="1.7"
     id="circle36" /></svg>