<svg xmlns="http://www.w3.org/2000/svg" xmlns:xlink="http://www.w3.org/1999/xlink" version="1.1" x="0px" y="0px" viewBox="0 0 100 125" style="enable-background:new 0 0 100 100;" xml:space="preserve"><path d="M81.9,23.2l-5.5-5.5c-0.3-0.3-0.7-0.4-1.1-0.4h-8.9H33.9H21.2c-1.9,0-3.5,1.6-3.5,3.5v58.6c0,1.9,1.6,3.5,3.5,3.5h7.5h43  h7.2c1.9,0,3.5-1.6,3.5-3.5V24.2C82.3,23.8,82.2,23.5,81.9,23.2z M35.4,20.2h29.5v18.1c0,0.3-0.2,0.5-0.5,0.5H35.9  c-0.3,0-0.5-0.2-0.5-0.5V20.2z M70.1,79.8h-40V51.4c0-0.3,0.2-0.5,0.5-0.5h39c0.3,0,0.5,0.2,0.5,0.5V79.8z M79.3,79.3  c0,0.3-0.2,0.5-0.5,0.5h-5.7V51.4c0-1.9-1.6-3.5-3.5-3.5h-39c-1.9,0-3.5,1.6-3.5,3.5v28.4h-6c-0.3,0-0.5-0.2-0.5-0.5V20.7  c0-0.3,0.2-0.5,0.5-0.5h11.2v18.1c0,1.9,1.6,3.5,3.5,3.5h28.5c1.9,0,3.5-1.6,3.5-3.5V20.2h6.8l4.7,4.7V79.3z"/><path d="M52.3,36.3h5c1.9,0,3.5-1.6,3.5-3.5v-6.5c0-1.9-1.6-3.5-3.5-3.5h-5c-1.9,0-3.5,1.6-3.5,3.5v6.5  C48.8,34.7,50.4,36.3,52.3,36.3z M51.8,26.3c0-0.3,0.2-0.5,0.5-0.5h5c0.3,0,0.5,0.2,0.5,0.5v6.5c0,0.3-0.2,0.5-0.5,0.5h-5  c-0.3,0-0.5-0.2-0.5-0.5V26.3z"/><text x="0" y="115" fill="#000000" font-size="5px" font-weight="bold" font-family="'Helvetica Neue', Helvetica, Arial-Unicode, Arial, Sans-serif">Created by Musavvir Ahmed</text><text x="0" y="120" fill="#000000" font-size="5px" font-weight="bold" font-family="'Helvetica Neue', Helvetica, Arial-Unicode, Arial, Sans-serif">from the Noun Project</text></svg>