<?xml version="1.0" encoding="UTF-8" standalone="no"?>
<svg width="32px" height="32px" viewBox="0 0 32 32" version="1.1" xmlns="http://www.w3.org/2000/svg" xmlns:xlink="http://www.w3.org/1999/xlink" xmlns:sketch="http://www.bohemiancoding.com/sketch/ns">
    <!-- Generator: Sketch 3.4.2 (15855) - http://www.bohemiancoding.com/sketch -->
    <title>twitter</title>
    <desc>Created with Sketch.</desc>
    <defs></defs>
    <g id="Page-1" stroke="none" stroke-width="1" fill="none" fill-rule="evenodd" sketch:type="MSPage">
        <g id="twitter" sketch:type="MSArtboardGroup" fill="#222222">
            <path d="M31.3098598,7.81948081 C30.2298545,8.29735869 29.0702042,8.62231634 27.856393,8.76568013 C29.0956913,8.02337541 30.0514471,6.84460929 30.5006528,5.43964783 C29.337816,6.12779175 28.0507311,6.63115682 26.6808133,6.89876866 C25.5848788,5.72956042 24.0206242,5 22.2907065,5 C18.9710456,5 16.2789993,7.69204632 16.2789993,11.0148922 C16.2789993,11.4863986 16.3299722,11.9451622 16.435106,12.38481 C11.4365004,12.1331275 7.00497705,9.74055164 4.03894745,6.102306 C3.52283808,6.98797309 3.22655405,8.02337541 3.22655405,9.1256814 C3.22655405,11.2092304 4.28744355,13.0506532 5.89948605,14.1306585 C4.91505667,14.0987998 3.98797309,13.8280016 3.17558111,13.3787973 L3.17558111,13.452071 C3.17558111,16.3671276 5.24957218,18.797935 7.99896431,19.349088 C7.49559924,19.4860789 6.96356199,19.559354 6.415594,19.559354 C6.02692053,19.559354 5.65098995,19.524309 5.28461581,19.4510353 C6.04922128,21.8404247 8.26976116,23.5799017 10.9012767,23.6276896 C8.84321491,25.2429171 6.24992945,26.2018593 3.43363508,26.2018593 C2.94938433,26.2018593 2.46832144,26.1731871 2,26.1190278 C4.66018913,27.8234597 7.82055546,28.820632 11.2166764,28.820632 C22.2779622,28.820632 28.3278994,19.6581149 28.3278994,11.709409 C28.3278994,11.451355 28.321528,11.1901146 28.3087851,10.9320606 C29.4843648,10.0846236 30.5038378,9.02691911 31.3098598,7.81948081" id="Fill-211" sketch:type="MSShapeGroup"></path>
        </g>
    </g>
</svg>