<svg xmlns="http://www.w3.org/2000/svg" xmlns:xlink="http://www.w3.org/1999/xlink" version="1.1" x="0px" y="0px" viewBox="0 0 100 125" style="enable-background:new 0 0 100 100;" xml:space="preserve"><path d="M61.1,47.7c-0.1,0-0.2,0-0.3,0c-0.3-2.8-1.8-5.2-4-6.8v-9.2c0-1.1-0.9-2-2-2H43.4c-1.1,0-2,0.9-2,2v9.2  c-2.5,1.8-4.1,4.7-4.1,8.1v2.7c0,3.3,1.6,6.2,4.1,8.1v8.6c0,1.1,0.9,2,2,2h11.5c1.1,0,2-0.9,2-2v-8.6c2.2-1.6,3.7-4,4-6.8  c0.1,0,0.2,0,0.3,0c0.9,0,1.6-0.7,1.6-1.6v-2.1C62.7,48.4,62,47.7,61.1,47.7z M58.9,51.6c0,2.1-0.8,3.9-2.1,5.4  c-1.5,1.6-3.6,2.6-5.9,2.6h-3.6c-2.3,0-4.4-1-5.9-2.6c-1.3-1.4-2.1-3.3-2.1-5.4V49c0-2.1,0.8-3.9,2.1-5.4c1.5-1.6,3.6-2.6,5.9-2.6  h3.6c2.3,0,4.4,1,5.9,2.6c1.3,1.4,2.1,3.3,2.1,5.4V51.6z"/><path d="M49.1,42.7c-0.6,0-1,0.4-1,1v5.6h-4.5c-0.6,0-1,0.4-1,1v0c0,0.6,0.4,1,1,1h5.5c0.6,0,1-0.4,1-1v0v-6.6  C50.1,43.1,49.7,42.7,49.1,42.7z"/><text x="0" y="115" fill="#000000" font-size="5px" font-weight="bold" font-family="'Helvetica Neue', Helvetica, Arial-Unicode, Arial, Sans-serif">Created by Musavvir Ahmed</text><text x="0" y="120" fill="#000000" font-size="5px" font-weight="bold" font-family="'Helvetica Neue', Helvetica, Arial-Unicode, Arial, Sans-serif">from the Noun Project</text></svg>