<?xml version="1.0" encoding="UTF-8" standalone="no"?>
<svg width="32px" height="32px" viewBox="0 0 32 32" version="1.1" xmlns="http://www.w3.org/2000/svg" xmlns:xlink="http://www.w3.org/1999/xlink" xmlns:sketch="http://www.bohemiancoding.com/sketch/ns">
    <!-- Generator: Sketch 3.4.2 (15855) - http://www.bohemiancoding.com/sketch -->
    <title>website</title>
    <desc>Created with Sketch.</desc>
    <defs></defs>
    <g id="Page-1" stroke="none" stroke-width="1" fill="none" fill-rule="evenodd" sketch:type="MSPage">
        <g id="website" sketch:type="MSArtboardGroup" fill="#222222">
            <path d="M12.7630996,26.6933371 C13.4405951,26.3884121 13.5094465,25.9913027 14.1235991,25.9700285 C14.8258812,25.9416639 15.3987228,25.7336531 16.1891343,25.5847366 C16.8914165,25.4523658 18.1500171,24.8425187 19.257144,24.7621503 C20.188012,24.6983291 22.03047,24.8046987 22.5261993,25.5776447 C20.7415755,26.5940594 18.6044352,27.1873607 16.3103127,27.1873607 C15.0709916,27.1873607 13.8812424,27.012443 12.7630996,26.6933371 C12.7630996,26.6933371 13.8812424,27.012443 12.7630996,26.6933371 L12.7630996,26.6933371 L12.7630996,26.6933371 L12.7630996,26.6933371 Z M14.2968823,6.44077526 C14.0304095,6.93657861 13.328882,7.13905369 12.9019842,7.51025731 C11.9720516,8.31236956 11.5723438,8.20334462 11.0720299,8.97171173 C10.5689966,9.74267441 8.94297537,10.8536897 8.94297537,11.4117936 C8.94297537,11.969899 9.76414357,12.6266441 10.1747277,12.4994474 C10.5853103,12.3696566 11.6675125,12.3774447 12.3037822,12.590302 C12.9400505,12.8057563 17.6250589,13.0212107 16.1322741,16.8007428 C15.6591502,18.0026127 13.5871965,17.8001376 13.0352192,19.7911419 C12.9536462,20.0818746 12.6654223,21.3304703 12.6463877,21.738016 C12.6137588,22.3688042 13.1140741,24.7465869 12.4778044,24.7465869 C11.8360972,24.7465869 10.1149073,22.6205992 10.1149073,22.2338208 C10.1149073,21.8496365 9.66625548,20.4972084 9.66625548,19.3394674 C9.66625548,18.1817263 7.60517813,18.2024922 7.60517813,16.6631638 C7.60517813,15.2743937 8.72272717,14.5839019 8.47257094,13.9193686 C8.22513271,13.2574309 6.25922402,13.2340694 5.44077526,13.1535985 C6.87102173,9.61028657 10.2399854,6.97811185 14.2968823,6.44077526 C14.2968823,6.44077526 10.2399854,6.97811185 14.2968823,6.44077526 L14.2968823,6.44077526 L14.2968823,6.44077526 L14.2968823,6.44077526 Z M26.1873607,16.8486432 C26.1873607,19.3587611 25.4013572,21.6757923 24.0913508,23.5261993 C23.7205943,23.209753 23.3251208,22.3623202 23.6958774,21.4827057 C24.0691056,20.5977291 24.1679732,18.5488721 24.0839357,17.7523924 C23.9998982,16.955914 23.6192549,15.0357815 22.581136,15.0170089 C21.5479605,15.0009187 20.8361091,14.6281546 20.2206523,13.2980073 C18.9427779,10.5250786 22.6182114,9.99141113 21.340337,8.45476803 C20.9819389,8.02568896 19.1380444,10.230086 18.8661555,7.29088901 C18.8488536,7.08171359 19.0342319,6.76794832 19.2814025,6.44077526 C23.2905171,7.90232793 26.1873607,12.0134497 26.1873607,16.8486432 C26.1873607,16.8486432 26.1873607,12.0134497 26.1873607,16.8486432 L26.1873607,16.8486432 L26.1873607,16.8486432 L26.1873607,16.8486432 Z M15.814068,4 C8.74764342,4 3,9.74764342 3,16.814068 C3,23.8804926 8.74764342,29.628136 15.814068,29.628136 C22.8804926,29.628136 28.628136,23.8804926 28.628136,16.814068 C28.628136,9.74764342 22.8804926,4 15.814068,4 L15.814068,4 L15.814068,4 L15.814068,4 Z" id="Fill-95" sketch:type="MSShapeGroup"></path>
        </g>
    </g>
</svg>