<?xml version="1.0" encoding="UTF-8" standalone="no"?>
<svg
   xmlns:dc="http://purl.org/dc/elements/1.1/"
   xmlns:cc="http://creativecommons.org/ns#"
   xmlns:rdf="http://www.w3.org/1999/02/22-rdf-syntax-ns#"
   xmlns:svg="http://www.w3.org/2000/svg"
   xmlns="http://www.w3.org/2000/svg"
   xmlns:sodipodi="http://sodipodi.sourceforge.net/DTD/sodipodi-0.dtd"
   xmlns:inkscape="http://www.inkscape.org/namespaces/inkscape"
   version="1.1"
   x="0px"
   y="0px"
   viewBox="0 0 100 125"
   enable-background="new 0 0 100 100"
   xml:space="preserve"
   id="svg2"
   inkscape:version="0.91 r13725"
   sodipodi:docname="writingtext.svg"><metadata
     id="metadata34"><rdf:RDF><cc:Work
         rdf:about=""><dc:format>image/svg+xml</dc:format><dc:type
           rdf:resource="http://purl.org/dc/dcmitype/StillImage" /></cc:Work></rdf:RDF></metadata><defs
     id="defs32" /><sodipodi:namedview
     pagecolor="#ffffff"
     bordercolor="#666666"
     borderopacity="1"
     objecttolerance="10"
     gridtolerance="10"
     guidetolerance="10"
     inkscape:pageopacity="0"
     inkscape:pageshadow="2"
     inkscape:window-width="700"
     inkscape:window-height="480"
     id="namedview30"
     showgrid="false"
     inkscape:zoom="1.888"
     inkscape:cx="50"
     inkscape:cy="62.5"
     inkscape:window-x="0"
     inkscape:window-y="0"
     inkscape:window-maximized="0"
     inkscape:current-layer="svg2" /><g
     id="g4"><path
       fill="#000000"
       d="M85.388,56.907h-2.835l3.854-3.874c0.506-0.508,0.505-1.33-0.002-1.836L47.904,12.695   c-0.244-0.244-0.575-0.38-0.919-0.38c0,0-0.001,0-0.001,0c-0.346,0-0.676,0.138-0.92,0.383L11.965,46.967   c-0.506,0.508-0.504,1.33,0.002,1.836l38.501,38.501c0.244,0.244,0.575,0.381,0.919,0.381h0.001c0.346,0,0.676-0.138,0.92-0.383   l14.656-14.729l8.923,0.997c0.109,0.012,0.22,0.018,0.331,0.018h3.664v3.788h8.532v-3.361V59.933v-3.026H85.388z M51.385,84.544   L14.723,47.881l32.265-32.426L83.65,52.119l-4.764,4.788h-0.058c-0.125,0-0.243-0.055-0.325-0.15l-8.323-9.777   c-0.575-0.677-1.415-1.064-2.304-1.064H56.344c-0.646,0-1.287,0.212-1.806,0.598l-5.931,4.411c-0.764,0.568-1.22,1.476-1.22,2.428   v1.017c0,0.746,0.267,1.428,0.712,1.956l-0.624,0.182c-0.092,0.027-0.177,0.067-0.264,0.102h-6.446   c-0.357,0-0.679,0.145-0.914,0.377l-0.01-0.01l-3.929,3.893l1.83,1.847l3.539-3.507h4.032c-0.005,0.068-0.017,0.135-0.017,0.204   v1.242c0,0.919,0.41,1.778,1.126,2.355l9.776,7.886c0.45,0.364,0.992,0.59,1.564,0.652l5.9,0.659L51.385,84.544z M79.882,59.591   v11.397l-3.711-0.003l-6.863-0.766l-3.301-0.369l-7.955-0.888c-0.08-0.009-0.155-0.041-0.219-0.092l-9.777-7.887   c-0.101-0.082-0.159-0.202-0.159-0.332V59.41c0-0.075,0.033-0.141,0.068-0.204c0.054-0.094,0.13-0.173,0.239-0.205l0.702-0.205   c0.038-0.011,0.077-0.017,0.118-0.017h3.304c0.072,0,0.144,0.019,0.207,0.053l0.674,0.374l3.53,1.956   c1.31,0.726,2.977,0.373,3.88-0.821l0.663-0.875c0.063-0.083,0.107-0.173,0.159-0.26h3.607h6.875c0.718,0,1.3-0.582,1.3-1.3   s-0.582-1.3-1.3-1.3h-6.875h-3.349c-0.172-0.473-0.452-0.912-0.858-1.261l-2.234-1.921c-1.097-0.943-2.714-0.976-3.849-0.081   l-1.834,1.449c-0.079,0.063-0.168,0.094-0.281,0.091l-2.247-0.09c-0.229-0.009-0.41-0.196-0.41-0.426v-1.017   c0-0.134,0.064-0.262,0.172-0.342l5.93-4.41c0.074-0.054,0.164-0.084,0.255-0.084h11.531c0.125,0,0.243,0.055,0.324,0.15   l8.323,9.778c0.13,0.152,0.276,0.285,0.43,0.407c0.53,0.42,1.185,0.658,1.874,0.658h1.055V59.591z M54.822,56.607l1.548-1.223   c0.16-0.126,0.387-0.121,0.542,0.012l1.408,1.211H54.822z"
       id="path6" /><rect
       x="31.209"
       y="52.805"
       transform="matrix(0.7096 -0.7046 0.7046 0.7096 -27.6775 41.0556)"
       fill="#000000"
       width="9.517"
       height="2.6"
       id="rect8" /><rect
       x="39.716"
       y="42.687"
       transform="matrix(0.7096 -0.7046 0.7046 0.7096 -17.5898 45.2985)"
       fill="#000000"
       width="12.88"
       height="2.6"
       id="rect10" /><rect
       x="50.974"
       y="34.869"
       transform="matrix(0.7095 -0.7047 0.7047 0.7095 -9.7936 48.5776)"
       fill="#000000"
       width="6.111"
       height="2.6"
       id="rect12" /><rect
       x="25.362"
       y="43.072"
       transform="matrix(0.7096 -0.7046 0.7046 0.7096 -22.9692 33.0163)"
       fill="#000000"
       width="6.412"
       height="2.6"
       id="rect14" /><rect
       x="31.929"
       y="35.806"
       transform="matrix(0.7095 -0.7047 0.7047 0.7095 -15.7235 36.065)"
       fill="#000000"
       width="7.914"
       height="2.6"
       id="rect16" /><rect
       x="38.725"
       y="29.057"
       transform="matrix(0.7095 -0.7047 0.7047 0.7095 -8.9943 38.8933)"
       fill="#000000"
       width="7.914"
       height="2.6"
       id="rect18" /><rect
       x="33.009"
       y="44.019"
       transform="matrix(0.7095 -0.7047 0.7047 0.7095 -21.4158 38.6823)"
       fill="#000000"
       width="6.412"
       height="2.6"
       id="rect20" /><rect
       x="27.357"
       y="49.631"
       transform="matrix(0.7096 -0.7046 0.7046 0.7096 -27.0115 36.327)"
       fill="#000000"
       width="6.412"
       height="2.6"
       id="rect22" /><rect
       x="38.022"
       y="36.67"
       transform="matrix(0.7096 -0.7046 0.7046 0.7096 -14.0874 41.759)"
       fill="#000000"
       width="11.187"
       height="2.6"
       id="rect24" /></g></svg>