<?xml version="1.0" standalone="no"?>
<!DOCTYPE svg PUBLIC "-//W3C//DTD SVG 20010904//EN"
 "http://www.w3.org/TR/2001/REC-SVG-20010904/DTD/svg10.dtd">
<svg version="1.0" xmlns="http://www.w3.org/2000/svg"
 width="16.000000pt" height="16.000000pt" viewBox="0 0 16.000000 16.000000"
 preserveAspectRatio="xMidYMid meet">
<metadata>
Created by potrace 1.11, written by Peter Selinger 2001-2013
</metadata>
<g transform="translate(0.000000,16.000000) scale(0.002286,-0.002286)"
fill="#000000" stroke="none">
<path d="M3377 6414 c-1 -1 -47 -4 -102 -8 -460 -29 -960 -198 -1355 -457
-103 -67 -227 -156 -250 -179 -3 -3 -36 -32 -75 -65 -325 -277 -616 -673 -769
-1045 -15 -36 -33 -78 -41 -95 -41 -91 -130 -398 -151 -525 -4 -25 -8 -47 -9
-50 -1 -3 -5 -32 -9 -65 -5 -33 -10 -69 -12 -80 -16 -81 -22 -400 -11 -565 81
-1188 923 -2234 2073 -2574 118 -35 313 -79 409 -91 28 -4 61 -9 75 -11 138
-23 593 -22 705 1 11 2 39 7 63 9 77 10 215 37 312 63 687 180 1273 592 1677
1179 230 334 394 734 462 1124 35 199 44 308 44 515 0 216 -5 275 -39 495 -68
427 -256 870 -526 1238 -270 367 -638 677 -1043 879 -187 94 -450 190 -625
229 -19 4 -39 9 -45 10 -63 18 -281 51 -390 60 -75 6 -363 13 -368 8z m294
-888 c384 -86 656 -387 697 -769 8 -76 8 -91 -2 -199 -13 -140 -88 -322 -181
-437 -108 -132 -266 -240 -426 -289 -90 -28 -129 -34 -241 -37 -325 -8 -623
162 -781 447 -53 94 -79 171 -102 298 -9 46 -9 193 0 250 40 278 221 531 472
658 53 27 179 70 229 78 22 3 41 8 43 9 5 6 263 -2 292 -9z m44 -2300 c57 -7
204 -29 270 -41 26 -5 215 -49 255 -60 62 -16 221 -69 300 -100 232 -92 404
-196 531 -324 107 -107 159 -199 174 -311 6 -47 4 -53 -31 -102 -317 -438
-783 -743 -1289 -844 -20 -4 -52 -9 -110 -19 -128 -21 -410 -27 -541 -12 -314
35 -586 128 -866 295 -174 103 -389 288 -514 442 -16 19 -37 44 -46 54 -40 44
-98 138 -98 159 0 38 27 123 56 181 129 251 515 473 1057 607 65 16 136 32
159 34 22 3 44 8 48 10 3 2 35 7 71 11 35 3 67 8 70 10 4 2 42 7 85 10 44 3
80 7 81 8 6 5 282 -2 338 -8z"/>
</g>
</svg>
