<?xml version="1.0" encoding="utf-8"?>
<!-- Generator: Adobe Illustrator 19.1.0, SVG Export Plug-In . SVG Version: 6.00 Build 0)  -->
<svg version="1.1" xmlns="http://www.w3.org/2000/svg" xmlns:xlink="http://www.w3.org/1999/xlink" x="0px" y="0px"
	 viewBox="0 0 454 1120.8" style="enable-background:new 0 0 454 1120.8;" xml:space="preserve">
<style type="text/css">
	.st0{display:none;}
	.st1{fill:#fff;}
	.st2{fill:#6f6f6f;}
	.st3{fill:none;}
</style>
<g id="GUIDES" class="st0">
</g>
<g id="Layer_3">
	<rect y="-2.9" class="st1" width="454" height="1123.6"/>
</g>
<g id="Layer_1">
	<g>
		<path class="st2" d="M190.1,73.9c17.7,0,32-14.3,32-32c0-17.7-14.3-32-32-32c-17.7,0-32,14.3-32,32
			C158.1,59.5,172.4,73.9,190.1,73.9z M184.2,48.5c0,0-4.3-0.1-5.5-4.1c0,0,2.1,0.2,2.5-0.2c0,0-4.6-1.1-4.6-5.9
			c0,0,1.4,0.7,2.7,0.7c0,0-4.4-3.2-1.7-8c0,0,4.5,5.9,12.2,6.3c0,0-1-3.5,2.2-6.2c3.2-2.7,7.2-0.4,8,0.6c0,0,2.3-0.4,3.8-1.4
			c0,0-0.5,2-2.4,3.3c0,0,2.2-0.3,3.3-0.9c0,0-1.1,1.7-3,3.1c0,0,0.8,7.4-5.6,13.5c-6.3,6.1-16.8,4.8-20.5,1.6
			C175.5,51,180.6,51.6,184.2,48.5z"/>
	</g>
	<g>
		<path class="st2" d="M264,73.9c17.7,0,32-14.3,32-32c0-17.7-14.3-32-32-32s-32,14.3-32,32C232,59.5,246.4,73.9,264,73.9z
			 M256.7,38.1h4.4V34c0,0-0.2-2.7,1.8-4.7c2-2,4.7-1.8,8.6-1.5v4.5h-2.9c0,0-1.2,0-1.8,0.6c-0.6,0.6-0.5,1.6-0.5,1.8v3.3h4.9
			l-0.6,5h-4.3v13H261v-13h-4.4V38.1z"/>
	</g>
	<g>
		<path class="st2" d="M42,147.7c17.7,0,32-14.3,32-32c0-17.7-14.3-32-32-32s-32,14.3-32,32C10,133.4,24.3,147.7,42,147.7z
			 M29.7,106.1c0-1.5,1.2-2.7,2.7-2.7h19.5c1.5,0,2.7,1.2,2.7,2.7v19.5c0,1.5-1.2,2.7-2.7,2.7H32.4c-1.5,0-2.7-1.2-2.7-2.7V106.1z"
			/>
		<path class="st2" d="M42.1,120.9c2.8,0,5.1-2.3,5.1-5.1c0-0.8-0.2-1.6-0.6-2.3c-0.1-0.2-0.2-0.4-0.4-0.6c0,0,0,0,0,0
			c-0.1-0.1-0.2-0.3-0.3-0.4c0,0,0,0,0,0c-0.1-0.1-0.2-0.2-0.3-0.3c0,0,0,0,0,0c0,0-0.1-0.1-0.1-0.1c0,0,0,0,0,0
			c-0.1-0.1-0.1-0.1-0.2-0.2c0,0,0,0-0.1,0c0,0-0.1-0.1-0.1-0.1c0,0,0,0-0.1,0c0,0-0.1-0.1-0.1-0.1c0,0-0.1-0.1-0.1-0.1
			c0,0-0.1,0-0.1-0.1c0,0-0.1,0-0.1-0.1c0,0-0.1,0-0.1,0c-0.1,0-0.1-0.1-0.2-0.1c0,0,0,0-0.1,0c0,0-0.1,0-0.1-0.1c0,0-0.1,0-0.1,0
			c-0.1,0-0.1,0-0.2-0.1c0,0,0,0-0.1,0c-0.1,0-0.1,0-0.2-0.1c0,0,0,0-0.1,0c-0.1,0-0.1,0-0.2,0c0,0,0,0-0.1,0c-0.1,0-0.1,0-0.2,0
			c0,0,0,0-0.1,0c-0.1,0-0.1,0-0.2,0c0,0,0,0-0.1,0c-0.1,0-0.1,0-0.2,0c0,0,0,0,0,0c-0.1,0-0.1,0-0.2,0c0,0,0,0-0.1,0
			c-0.1,0-0.2,0-0.2,0c-0.1,0-0.2,0-0.2,0c0,0,0,0-0.1,0c-0.1,0-0.1,0-0.2,0c0,0,0,0,0,0c-0.1,0-0.1,0-0.2,0c0,0,0,0-0.1,0
			c-0.1,0-0.1,0-0.2,0c0,0,0,0-0.1,0c-0.1,0-0.1,0-0.2,0c0,0,0,0-0.1,0c-0.1,0-0.1,0-0.2,0c0,0,0,0-0.1,0c-0.1,0-0.1,0-0.2,0.1
			c0,0,0,0-0.1,0c-0.1,0-0.1,0-0.2,0.1c0,0-0.1,0-0.1,0c0,0-0.1,0-0.1,0.1c0,0,0,0-0.1,0c-0.1,0-0.1,0.1-0.2,0.1c0,0-0.1,0-0.1,0
			c0,0-0.1,0-0.1,0.1c0,0-0.1,0-0.1,0.1c0,0-0.1,0.1-0.1,0.1c0,0-0.1,0.1-0.1,0.1c0,0,0,0-0.1,0c0,0-0.1,0-0.1,0.1c0,0,0,0-0.1,0
			c-0.1,0.1-0.1,0.1-0.2,0.2c0,0,0,0,0,0c0,0-0.1,0.1-0.1,0.1c0,0,0,0,0,0c-0.1,0.1-0.2,0.2-0.3,0.3c0,0,0,0,0,0
			c-0.1,0.1-0.2,0.2-0.3,0.4c0,0,0,0,0,0c-0.1,0.2-0.2,0.4-0.4,0.6c-0.4,0.7-0.6,1.5-0.6,2.3C37,118.6,39.3,120.9,42.1,120.9z"/>
		<path class="st2" d="M34.2,125.4H50c0.9,0,1.6-0.7,1.6-1.6v-10.3h-2.2c0.2,0.7,0.4,1.5,0.4,2.3c0,4.3-3.5,7.7-7.7,7.7
			c-4.3,0-7.7-3.5-7.7-7.7c0-0.8,0.1-1.6,0.4-2.3h-2.2v10.3C32.6,124.7,33.3,125.4,34.2,125.4z"/>
		<path class="st2" d="M48.4,110.8h2c0.7,0,1.2-0.6,1.2-1.2v-2c0-0.7-0.6-1.2-1.2-1.2h-2c-0.7,0-1.2,0.6-1.2,1.2v2
			C47.2,110.2,47.7,110.8,48.4,110.8z"/>
	</g>
	<g>
		<path class="st2" d="M412,73.9c17.7,0,32-14.3,32-32c0-17.7-14.3-32-32-32s-32,14.3-32,32C380,59.5,394.3,73.9,412,73.9z
			 M420.4,36.7h1.8v2.9h2.9v1.8h-2.9v2.9h-1.8v-2.9h-2.9v-1.8h2.9V36.7z M400.8,47c2.7-2.5,8.3-2.4,8.3-2.4
			c-0.2-0.3-1.1-1.4-1.2-2.3c-0.1-0.8,0.4-1.8,0.4-1.8s-3,0.6-5.6-1.5c-2.5-2.1-2.6-5.9-0.3-8.9c2.4-3,7.2-2.8,7.2-2.8h8.2l-2.4,1.4
			h-2.3c2.9,2.2,2.6,4.8,2.6,4.8c0,3-1.1,4-1.6,4.4c-0.5,0.4-1.4,1.2-2,1.7c-0.5,0.6-1.1,1.8-0.4,2.5c0.7,0.8,3.5,2.6,4.6,4.5
			c1.1,1.8,0.5,4,0.5,4c-1.4,5.2-8.5,7-13.9,5.4C397.8,54.2,398.1,49.4,400.8,47z"/>
		<path class="st2" d="M412.4,36.6c0.4-1.7-0.2-5.1-2.2-7.1c-2-2-4.2-0.6-4.2-0.6c-3.1,1.9-1.7,6.5,0,8.9c1.7,2.3,4.3,1.4,4.7,1.2
			C411.1,38.7,412.1,38.3,412.4,36.6z"/>
		<path class="st2" d="M411.1,54.6c3.3-1,3.4-3,3.5-3.9c0.1-0.9-0.6-2.4-1.6-3.2c-1-0.8-2.5-1.9-2.5-1.9c-4.6,0.1-6.1,1-7.1,1.9
			c-1,0.9-1.1,2.6-1.1,2.6C402.1,54,407.8,55.6,411.1,54.6z"/>
	</g>
	<g>
		<path class="st2" d="M338,9.9c-17.7,0-32,14.3-32,32c0,17.7,14.3,32,32,32s32-14.3,32-32C370,24.2,355.7,9.9,338,9.9z M332.1,52.6
			h-4.5V38.3h4.5V52.6z M329.9,36.3c-1.4,0-2.6-1.2-2.6-2.6c0-1.4,1.2-2.6,2.6-2.6c1.4,0,2.6,1.2,2.6,2.6
			C332.4,35.2,331.3,36.3,329.9,36.3z M348.8,44.8v7.7h-4.5v-7.3c0-0.8,0.2-3.4-2.5-3.4c-2.7,0-2.5,3.3-2.5,3.3v7.4h-4.4V38.3h4.3v2
			c1.1-1.9,3.3-2.9,6.6-2C349,39.2,348.8,44.8,348.8,44.8z"/>
	</g>
	<g>
		<path class="st2" d="M115.7,147.7c17.7,0,32-14.3,32-32c0-17.7-14.3-32-32-32c-17.7,0-32,14.3-32,32
			C83.7,133.4,98,147.7,115.7,147.7z M108.7,108.5h0.8c0,0,2.2-0.5,3.3-2.4c1-1.8,0.9-3.3,0.9-3.3h3.7v5.6h5.8v4.5h-5.8v7.4
			c0,0,0,1.2,0.2,1.6c0.1,0.5,1,1.5,2.4,1.5c1.4,0,3.5-0.9,3.5-0.9v5.5c0,0-2.9,0.8-4.6,0.8c-1.7,0-6.7-0.2-7.5-5.2V113h-2.7V108.5z
			"/>
	</g>
	<g>
		<path class="st2" d="M190.1,147.7c17.7,0,32-14.3,32-32c0-17.7-14.3-32-32-32c-17.7,0-32,14.3-32,32
			C158.1,133.4,172.4,147.7,190.1,147.7z M194.3,108.2h7v1.8h-7V108.2z M197.8,111.4c6.9,0,6.3,7.6,6.3,7.6h-9c0,1.4,1,3.1,3,3.1
			c2,0,2.8-1.7,2.8-1.7h3.1c-0.4,1-1.6,4.2-5.8,4.2c-4.2,0-5.9-3.1-6.2-4.2c-0.3-1.1-0.3-2.4-0.3-2.4
			C191.8,111.6,197.8,111.4,197.8,111.4z M176.1,107.1h9.7c1.6,0.3,3.8,0.9,3.9,4c0.1,3.1-2.3,3.8-2.3,3.8c3.3,1,3.1,4.2,3.1,4.2
			c0,5.3-5.6,5.1-5.6,5.1h-8.8V107.1z"/>
		<path class="st2" d="M186.7,119c0-2-2.2-2.3-2.2-2.3h-4.7v4.7h4.7C184.6,121.4,186.7,121,186.7,119z"/>
		<path class="st2" d="M186,112c0,0-0.1-1.9-1.8-1.9h-4.3v3.9h4C183.8,114,186,114,186,112z"/>
		<path class="st2" d="M197.8,114.1c-2.4,0-2.8,2.5-2.8,2.5l5.6,0C200.3,113.9,197.8,114.1,197.8,114.1z"/>
	</g>
	<g>
		<path class="st2" d="M264,147.7c17.7,0,32-14.3,32-32c0-17.7-14.3-32-32-32s-32,14.3-32,32C232,133.4,246.4,147.7,264,147.7z
			 M253,111.6c0,0,0.4-9.5,11-9.9c10.6-0.4,11,9.4,11,9.4s0.3,2.4-1.4,6.2c-1.7,3.8-4.9,4.9-7.4,5s-4-2-4-2l-0.9,3.6
			c-0.7,3.1-2.3,4.9-2.6,5.4c-0.3,0.5-0.7,0.9-0.9,0.8c-0.2,0-0.2-0.5-0.2-0.5s-0.2-2.7-0.2-3.7c0-1,0.4-2.6,0.4-2.6l2-8.6
			c-0.4-0.9-0.6-2.4-0.6-2.4c-0.1-2.3,1.5-4.2,3.2-4.3c1.7,0,2.2,1.3,2.2,2.3c0.1,1-0.6,3.6-1.3,5.3c-0.7,1.7,0.8,5.2,4.2,3.3
			c3.4-1.9,3.4-7.9,3.4-7.9c0-6.7-6.6-6.5-6.6-6.5c-6.9,0-8.2,5.8-8.2,7.7c0,2,1.1,3.4,1.1,3.4c0.4,0.4,0.2,1,0.2,1l-0.4,1.3
			c-0.1,0.5-0.9,0.2-0.9,0.2C252.7,116.2,253,111.6,253,111.6z"/>
	</g>
	<g>
		<path class="st2" d="M337.4,83.7c-17.7,0-32,14.3-32,32c0,17.7,14.3,32,32,32c17.7,0,32-14.3,32-32
			C369.4,98.1,355.1,83.7,337.4,83.7z M338,130.3c-8,0-14.5-6.5-14.5-14.5c0-8,6.5-14.5,14.5-14.5c8,0,14.5,6.5,14.5,14.5
			C352.5,123.9,346,130.3,338,130.3z"/>
		<path class="st2" d="M339.5,110.9c2.5-1,4.8-2.4,6.3-4.4c-2.1-1.8-4.9-2.9-7.8-2.9c-1,0-1.9,0.1-2.8,0.3c0.8,1,2.1,2.9,3.5,5.4
			C339,109.8,339.2,110.3,339.5,110.9z"/>
		<path class="st2" d="M340.6,113c0.3,0.6,0.6,1.3,0.9,2c2.5-0.5,5.4-0.5,8.7,0.3c-0.1-2.7-1.1-5.1-2.7-7.1
			C345.8,110.4,343.3,112,340.6,113z"/>
		<path class="st2" d="M332.8,104.8c-3.3,1.6-5.8,4.6-6.7,8.3c1.7,0,6.5-0.1,11.1-1.4C335.2,107.9,333.4,105.6,332.8,104.8z"/>
		<path class="st2" d="M342.4,117.4c1,2.5,1.8,5.4,2.5,8.6c2.7-1.9,4.6-4.8,5.2-8.2C347.4,117.1,344.8,117,342.4,117.4z"/>
		<path class="st2" d="M333.7,118.5c1.4-1,3.2-2.1,5.4-2.8c-0.3-0.6-0.6-1.3-0.8-1.9c-4.9,1.5-9.9,1.6-12,1.6c-0.2,0-0.4,0-0.5,0
			c0,0.1,0,0.3,0,0.4c0,3,1.1,5.7,2.8,7.8C329.4,122.5,331.1,120.4,333.7,118.5z"/>
		<path class="st2" d="M335.1,120.5c-2.6,1.9-4.2,4.1-4.8,4.9c2.1,1.7,4.8,2.7,7.7,2.7c1.7,0,3.2-0.3,4.7-0.9
			c-0.7-3.4-1.6-6.5-2.7-9.2C338.3,118.5,336.7,119.3,335.1,120.5z"/>
	</g>
	<g>
		<polygon class="st3" points="56.6,50.7 56.6,34 45.9,43 		"/>
		<path class="st3" d="M42,42.4c0.8,0,1.2-0.1,1.6-0.5l12.7-9.9c0,0,0-0.7-1.4-0.7H29.2c0,0-0.8,0.1-1.2,0.5l12.5,9.9
			C40.5,41.7,41.2,42.4,42,42.4z"/>
		<polygon class="st3" points="27.6,33.7 27.6,50.7 38.2,42.8 		"/>
		<path class="st3" d="M42.2,45.3c-1.6,0-3.3-1.9-3.3-1.9l-10.6,8h27.5l-10.3-8C45.4,43.4,43.8,45.3,42.2,45.3z"/>
		<path class="st2" d="M42,73.9c17.7,0,32-14.3,32-32c0-17.7-14.3-32-32-32s-32,14.3-32,32C10,59.5,24.3,73.9,42,73.9z M28.2,51.4
			l10.6-8c0,0,1.8,1.9,3.3,1.9c1.6,0,3.2-1.9,3.2-1.9l10.3,8H28.2z M56.6,50.7L45.9,43l10.7-9V50.7z M29.2,31.3H55
			c1.4,0,1.4,0.7,1.4,0.7l-12.7,9.9c-0.4,0.4-0.8,0.5-1.6,0.5s-1.5-0.7-1.5-0.7L28,31.8C28.4,31.5,29.2,31.3,29.2,31.3z M27.6,33.7
			l10.6,9.2l-10.6,7.9V33.7z"/>
	</g>
	<g>
		<path class="st2" d="M115.8,73.9c17.7,0,32-14.3,32-32c0-17.7-14.3-32-32-32s-32,14.3-32,32C83.8,59.5,98.2,73.9,115.8,73.9z
			 M104.9,30.6c3,0,6,0.6,8.7,1.8c2.7,1.1,5,2.8,7.1,4.9c2,2.1,3.7,4.5,4.8,7.1c1.2,2.8,1.8,5.7,1.8,8.7h-3.6
			c0-10.2-8.6-18.9-18.8-18.9V30.6z M104.9,38.1c4,0,7.8,1.6,10.6,4.4c2.8,2.8,4.4,6.6,4.4,10.6h-3.6c0-6.2-5.2-11.4-11.4-11.4V38.1
			z M108.3,46.4c1.9,0,3.4,1.5,3.4,3.4c0,1.9-1.5,3.4-3.4,3.4c-1.9,0-3.4-1.5-3.4-3.4C104.9,47.9,106.4,46.4,108.3,46.4z"/>
	</g>
	<g>
		<polygon class="st2" points="408.9,121.4 417.4,115.9 408.9,110.3 		"/>
		<path class="st2" d="M412,83.7c-17.7,0-32,14.3-32,32c0,17.7,14.3,32,32,32s32-14.3,32-32C444,98.1,429.7,83.7,412,83.7z
			 M424.7,125.6c-1.3,1-12.7,0.7-12.7,0.7s-11.3,0.3-12.7-0.7c-1.3-1-2.4-3.9-2.4-9.7c0,0,0.1-4.4,0.5-6.2c0.5-1.8,1-2.8,1.7-3.5
			c0.7-0.6,2.1-0.8,12.8-0.8s12.2,0.2,12.8,0.8c0.7,0.6,1.2,1.7,1.7,3.5c0.5,1.8,0.5,6.2,0.5,6.2C427.1,121.7,426,124.6,424.7,125.6
			z"/>
	</g>
	<g>
		<path class="st2" d="M409.9,199.8c0,0-0.5,0.5-0.9,0.5c-0.4,0-0.4-0.5-0.4-0.5V194h-1.5v6.5c0,0.4,0.2,1.2,1,1.2s1.8-1,1.8-1v0.8
			h1.5V194h-1.5V199.8z"/>
		<path class="st2" d="M411.8,185.5c0.6,0,0.7-0.6,0.7-0.6v-4.7c0-0.1-0.1-0.6-0.8-0.6c-0.7,0-0.7,0.6-0.7,0.6v4.6
			C411,185,411.1,185.5,411.8,185.5z"/>
		<path class="st2" d="M412,158.1c-17.7,0-32,14.3-32,32c0,17.7,14.3,32,32,32s32-14.3,32-32C444,172.4,429.7,158.1,412,158.1z
			 M415.7,178.4h1.8v6.4c0,0,0,0.5,0.4,0.5c0.4,0,0.9-0.4,1-0.6v-6.3h1.8v8.4h-1.8v-0.9c0,0-0.9,1-2,1c-1.2,0-1.2-1.4-1.2-1.5V178.4
			z M409.2,180.1c0,0,0.1-1.9,2.5-1.9c2.5,0,2.5,2,2.5,2l0,4.3c0,0,0,1.2-0.6,1.7c-0.6,0.6-1.4,0.7-2.1,0.7s-1.3-0.3-1.9-0.8
			c-0.5-0.5-0.5-1.6-0.5-1.6V180.1z M404.5,175.4l1.3,4.6l1.3-4.6h2l-2.3,6.6v4.7h-2v-4.6l-2.4-6.8H404.5z M427.4,199.3
			c0,3-2.5,5.5-5.5,5.5h-19.7c-3,0-5.5-2.4-5.5-5.5v-4.5c0-3,2.5-5.5,5.5-5.5h19.7c3,0,5.5,2.4,5.5,5.5V199.3z"/>
		<path class="st2" d="M420.1,200.4c0,0-0.7,0.1-0.7-0.8v-1.7h2.9v-1.8c0,0,0.1-2.3-2.1-2.3c-2.2,0-2.4,1.9-2.4,2.3v3.6
			c0,0,0.1,2.1,2.2,2.1c2.1,0,2.3-1.3,2.3-2.7h-1.5C420.9,199,421.2,200.4,420.1,200.4z M420.2,195.1c0.7,0,0.7,0.7,0.7,0.7v1h-1.4
			v-1C419.5,195.7,419.4,195.1,420.2,195.1z"/>
		<path class="st2" d="M415.7,193.9c-1,0-1.5,0.7-1.5,0.7v-3.3h-1.6v10.2h1.6V201c0.7,0.7,1.5,0.7,1.5,0.7c1.3,0,1.4-1.5,1.4-1.5
			v-4.5C417.1,194.9,416.7,193.9,415.7,193.9z M415.5,200c0,0.2-0.1,0.5-0.6,0.5c-0.5,0-0.7-0.4-0.7-0.4v-4.8
			c0.3-0.3,0.7-0.3,0.7-0.3c0.7,0,0.7,0.7,0.7,0.7V200z"/>
		<polygon class="st2" points="401,192.8 402.8,192.8 402.8,201.5 404.6,201.5 404.6,192.8 406.4,192.8 406.4,191.3 401,191.3 		"/>
	</g>
	<g>
		<path class="st2" d="M264,222.1c17.7,0,32-14.3,32-32c0-17.7-14.3-32-32-32s-32,14.3-32,32C232,207.7,246.4,222.1,264,222.1z
			 M254.5,181.7c1.4-1.3,3.1-2.7,4.6-2.5c1.5,0.1,2.7,0.9,3.2,3.9c0.5,3,1,6.7,1.9,8.8c0,0,0.6,1.5,1.2,1.4c0.6-0.1,1.7-1.3,2.8-3.1
			c1.1-1.8,1.7-3.2,1.3-4.7c-0.4-1.4-2.6-1.1-3.6-0.7c0,0,1.7-6.6,7.5-6c0,0,3.8,0,3.6,4.6c-0.2,4.6-3.3,8.6-6.3,12.2
			c-3,3.6-5.9,6.1-8.4,5.8c-2.5-0.4-3.5-4.1-4.3-7.2c-0.8-3.1-1.9-7.2-3-8.6c0,0-0.5-0.7-1.3-0.2l-1.6,1.1l-1.2-1.6
			C251,184.9,253.1,182.9,254.5,181.7z"/>
	</g>
	<g>
		<path class="st2" d="M42,222.1c17.7,0,32-14.3,32-32c0-17.7-14.3-32-32-32s-32,14.3-32,32C10,207.7,24.3,222.1,42,222.1z
			 M35.4,181.3c0,0,0.7,5.7,1.9,9c1.3,3.2,3,6.4,4.6,8.2c0,0,2.3-1.9,4.3-6c0,0-4.6-2.4-4.6-8.4c0,0,0.2-6.6,5.7-6.6
			c5.5,0,5.8,4.8,5.8,6c0,1.2-0.4,3.5-1,4.5c0,0-2.3,0.6-3.8-1.2c0,0,0.6-1.1,0.6-3c0-1.9-0.9-2.5-1.8-2.5c-0.8,0-1.5,1.4-1.5,3.2
			c0,1.9,1.2,5.6,5.7,5.6h1.7v3c0,0-2.4,0.3-3,0.3c0,0-2.4,5.3-6.8,8.7c0,0-1,0.6-1.5,0.6c-0.4,0-1.6-0.5-2.3-1.2
			c-0.7-0.7-6.5-4.9-8.4-20.2H35.4z"/>
	</g>
	<g>
		<path class="st2" d="M334.6,202l4.3-4.2h7.8l5-5V177h-23.6v20.8h6.5V202z M343.8,182.6h2.9v8.6h-2.9V182.6z M336,182.6h2.9v8.6
			H336V182.6z"/>
		<path class="st2" d="M306,190.1c0,17.7,14.3,32,32,32c17.7,0,32-14.3,32-32c0-17.7-14.3-32-32-32C320.3,158.1,306,172.4,306,190.1
			z M354.6,194.2l-8.6,8.6h-6.5l-4.2,4.3H331v-4.4h-7.9v-22.8l2.2-5.8h29.3V194.2z"/>
	</g>
	<g>
		<path class="st2" d="M115.7,222.1c17.7,0,32-14.3,32-32c0-17.7-14.3-32-32-32s-32,14.3-32,32C83.7,207.7,98,222.1,115.7,222.1z
			 M126.6,188.3h2v1.2c0,0,0.5-1.2,1.5-1.3c0,0,0.8,0,1.1,0.1l-0.1,1.8c0,0-0.7-0.1-1-0.1c-0.4,0.1-1.3,0.5-1.3,1.6v3h-2.2V188.3z
			 M119.3,185.5h2.2v5.3l1.8-2.5h2.4l-2.2,2.9l2.4,3.4h-2.6l-1.8-3.1v3.1h-2.2V185.5z M113.6,189.5c0.6-0.9,2-1.3,3-1.3
			c1,0,1.8,0.3,1.8,0.3l-0.2,1.6c-0.4-0.2-1-0.4-1.6-0.4c-0.6,0.1-1.3,0.7-1.3,1.7c0,1,0.7,1.7,1.7,1.7c0.9,0,1.5-0.3,1.5-0.3v1.6
			c-0.5,0.2-2.5,0.6-4-0.3c-1.5-0.9-1.4-2.6-1.4-2.6S113,190.4,113.6,189.5z M110.1,185.7h2.2v1.6h-2.2V185.7z M110.1,188.3h2.2v6.3
			h-2.2V188.3z M106.9,185.6h2.2v9.1h-2.2V185.6z M101,188.3h1.3v-0.8c0,0-0.1-2.2,2.4-2.2c0,0,0.8,0,1.3,0.1l-0.1,1.5
			c0,0-0.5-0.1-0.7-0.1c-0.2,0-0.7,0.2-0.8,0.8v0.6h1.6v1.5h-1.6v4.8h-2.1v-4.8H101V188.3z"/>
	</g>
	<g>
		<path class="st2" d="M190.1,222.1c17.7,0,32-14.3,32-32c0-17.7-14.3-32-32-32c-17.7,0-32,14.3-32,32
			C158.1,207.7,172.4,222.1,190.1,222.1z M196.2,184.9c2.8,0,5.2,2.3,5.2,5.2c0,2.8-2.3,5.2-5.2,5.2c-2.8,0-5.2-2.3-5.2-5.2
			C191,187.2,193.3,184.9,196.2,184.9z M183.9,184.9c2.8,0,5.2,2.3,5.2,5.2c0,2.8-2.3,5.2-5.2,5.2c-2.8,0-5.2-2.3-5.2-5.2
			C178.8,187.2,181.1,184.9,183.9,184.9z"/>
	</g>
	<g>
		<path class="st2" d="M42,295.9c17.7,0,32-14.3,32-32c0-17.7-14.3-32-32-32s-32,14.3-32,32C10,281.5,24.3,295.9,42,295.9z
			 M52.3,254.9C52.3,254.9,52.3,254.9,52.3,254.9C52.3,254.8,52.3,254.8,52.3,254.9C52.4,254.8,52.4,254.8,52.3,254.9
			C52.4,254.8,52.4,254.8,52.3,254.9c0.1-0.1,0.1-0.1,0.1-0.1c0,0,0,0,0,0c0,0,0,0,0.1-0.1c0,0,0,0,0,0c0,0,0,0,0.1,0c0,0,0,0,0,0
			c0,0,0.1,0,0.1,0c0,0,0,0,0,0c0,0,0.1,0,0.1,0c0,0,0,0,0,0c0,0,0.1,0,0.1,0c0,0,0,0,0,0c0,0,0,0,0,0c0,0,0.1,0,0.1,0c0,0,0,0,0,0
			c0,0,0.1,0,0.1,0c0,0,0,0,0,0c0,0,0.1,0,0.1,0c0,0,0,0,0,0c0,0,0.1,0,0.1,0.1c0,0,0,0,0,0c0,0,0.1,0.1,0.1,0.1l2.3,2.3
			c0,0,0.4,0.7,0,1.1l-2.1,2.1l-11.4,11.3c0,0,0,0,0,0c0,0,0,0,0,0c0,0,0,0,0,0c0,0,0,0,0,0c0,0,0,0,0,0c0,0,0,0,0,0c0,0,0,0,0,0
			c0,0,0,0,0,0c0,0,0,0-0.1,0c0,0,0,0,0,0c0,0-0.1,0-0.1,0c0,0,0,0,0,0c0,0-0.1,0-0.1,0c0,0,0,0,0,0c0,0-0.1,0-0.1,0c0,0,0,0-0.1,0
			c0,0,0,0,0,0c0,0-0.1,0-0.1,0c0,0,0,0,0,0c0,0-0.1,0-0.1,0c0,0,0,0,0,0c0,0-0.1,0-0.1,0c0,0,0,0,0,0c0,0-0.1,0-0.1,0c0,0,0,0,0,0
			c0,0-0.1,0-0.1-0.1c0,0,0,0,0,0c0,0-0.1-0.1-0.1-0.1l-7.3-7.3c0,0-0.5-0.6,0-1.1c0.5-0.5,2.3-2.3,2.3-2.3s0,0,0,0c0,0,0,0,0,0
			c0,0,0,0,0,0c0,0,0,0,0,0c0,0,0,0,0,0c0,0,0,0,0,0c0,0,0,0,0.1,0c0,0,0,0,0,0c0,0,0,0,0.1,0c0,0,0,0,0,0c0,0,0.1,0,0.1,0
			c0,0,0,0,0,0c0,0,0.1,0,0.1,0c0,0,0,0,0,0c0,0,0.1,0,0.1,0c0,0,0,0,0.1,0c0,0,0,0,0,0c0,0,0.1,0,0.1,0c0,0,0,0,0,0
			c0,0,0.1,0,0.1,0c0,0,0,0,0,0c0,0,0.1,0,0.1,0.1c0,0,0,0,0,0c0,0,0.1,0,0.1,0.1c0,0,0,0,0,0c0,0,0.1,0.1,0.1,0.1l4.6,4.5l8.5-8.5
			L52.3,254.9z M28.9,261.6l10.9-10.9c1.3-1.3,3.3-1.3,4.6,0l4.9,4.9l-7.4,7.4l-3.5-3.4c-0.5-0.5-1.1-0.8-1.8-0.8
			c-0.9,0-1.5,0.5-1.7,0.7l0,0l0,0l-2.3,2.3c-1,1-0.8,2.3-0.2,3.2l0.1,0.1l0.1,0.1l7.3,7.3c0.5,0.6,1.2,0.8,2,0.8
			c0.8,0,1.4-0.3,1.5-0.4l0.1-0.1l0.1-0.1l11.4-11.3l0.2,0.2c1.3,1.3,1.3,3.3,0,4.6L44.4,277c-1.3,1.3-3.3,1.3-4.6,0l-10.9-10.9
			C27.7,264.9,27.7,262.8,28.9,261.6z"/>
	</g>
	<g>
		<path class="st2" d="M113.3,264.6c0.1-0.3,1.5-4.1-1.5-6.4c-3-2.3-6-1-7.3,0.3c-1.3,1.3-2.6,4.3-0.5,7.1c2.1,2.8,5.8,1.9,5.8,1.9
			l5.4,4.8l14.2-11.5v-7.5l-14,14.8L113.3,264.6z"/>
		<path class="st2" d="M116.1,231.9c-17.7,0-32,14.3-32,32c0,17.7,14.3,32,32,32c17.7,0,32-14.3,32-32
			C148.1,246.2,133.8,231.9,116.1,231.9z M130.1,261.5l-6.3,5.1l0.8,0.9l-8.8,8.8l-7.7-7.6c0,0-2.9,0.1-4.9-2.4
			c-2-2.6-1.6-6.2,0.5-8.3s5.7-2.8,8.6-0.4c0,0,1.3,1.1,1.9,2.7l1.5-1.5l3.8,3.7l10.5-11.1V261.5z"/>
	</g>
	<g>
		<path class="st2" d="M411.8,295.9c17.7,0,32-14.3,32-32c0-17.7-14.3-32-32-32c-17.7,0-32,14.3-32,32
			C379.8,281.5,394.1,295.9,411.8,295.9z M425.7,269.3l-3.8,6.6c0,0-0.2,0.2-0.3,0.2l-17.6,0c0,0-0.2-0.1-0.1-0.3l3.8-6.6
			c0,0,0.1-0.2,0.3-0.2l17.6,0C425.6,269,425.8,269.1,425.7,269.3z M409,251.7l7.6,0c0,0,0.2,0,0.3,0.2l8.8,15.3
			c0,0,0.1,0.2-0.2,0.2l-7.6,0c0,0-0.2,0-0.3-0.2l-8.8-15.3C408.8,251.9,408.8,251.7,409,251.7z M398.3,268.1l8.8-15.3
			c0,0,0.2-0.2,0.3,0l3.8,6.6c0,0,0.1,0.2,0,0.4l-8.8,15.3c0,0-0.1,0.1-0.3-0.1l-3.8-6.5C398.3,268.4,398.2,268.2,398.3,268.1z"/>
	</g>
	<g>
		<path class="st2" d="M337.6,295.9c17.7,0,32-14.3,32-32c0-17.7-14.3-32-32-32c-17.7,0-32,14.3-32,32
			C305.6,281.5,319.9,295.9,337.6,295.9z M324.3,265.8l4.7-4c0,0,0.2-0.1,0.3,0l7.8,4.7c0,0,0.1,0.1,0,0.2l-4.6,3.9
			c0,0-0.1,0.1-0.3,0l-8-4.7C324.2,266,324.2,265.8,324.3,265.8z M351.8,266l-8,4.7c-0.2,0.1-0.3,0-0.3,0l-4.6-3.9
			c-0.1-0.1,0-0.2,0-0.2l7.8-4.7c0.1,0,0.3,0,0.3,0l4.7,4C351.9,265.8,351.8,266,351.8,266z M338.5,255.5l5.1-4.2
			c0.1-0.1,0.3,0,0.3,0l8.3,5.1c0.1,0.1,0,0.2,0,0.2l-5.1,4.1c-0.1,0.1-0.3,0.1-0.3,0.1l-8.3-5C338.4,255.6,338.5,255.5,338.5,255.5
			z M338.4,267.1c0.1-0.1,0.2,0.1,0.2,0.1l5.2,4.2c0.1,0.1,0.1,0,0.1,0l2.5-1.3c0.2-0.1,0.2,0.1,0.2,0.1v1.2c0,0.2-0.2,0.3-0.2,0.3
			l-7.8,4.8c-0.2,0.1-0.2-0.1-0.2-0.1v-9.1C338.3,267.3,338.3,267.2,338.4,267.1z M337.7,267.1c0.1,0.1,0.1,0.2,0.1,0.2v9.1
			c0,0,0,0.3-0.2,0.1l-7.8-4.8c0,0-0.2-0.1-0.2-0.3v-1.2c0,0,0-0.2,0.2-0.1l2.5,1.3c0,0,0.1,0.1,0.1,0l5.2-4.2
			C337.5,267.2,337.6,267,337.7,267.1z M323.9,256.3l8.3-5.1c0,0,0.2-0.1,0.3,0l5.1,4.2c0,0,0.1,0.1,0,0.3l-8.3,5
			c0,0-0.1,0.1-0.3-0.1l-5.1-4.1C323.9,256.6,323.7,256.5,323.9,256.3z"/>
	</g>
	<g>
		<path class="st2" d="M190.1,295.9c17.7,0,32-14.3,32-32c0-17.7-14.3-32-32-32c-17.7,0-32,14.3-32,32
			C158.1,281.5,172.4,295.9,190.1,295.9z M181,258.2l-1.5-3.2l4.5-1.1l1.6,3.1c0,0,5.9-1.5,12.8-0.1c0,0,4.8,0.8,8.8,6.1
			c0,0,0.8,1.4-0.7,1.9l-13.5,3.7l-4.5-8.2c0,0,2.1-0.6,5.1-0.5l2.7,4.1l5.7-1.3c0,0-3.4-5.6-14.9-3l5,9.2l-17.3,4.9
			c0,0-1,0.5-1.4-0.5C173.4,273.1,168.8,262.9,181,258.2z"/>
		<path class="st2" d="M185.1,266.6l-2.7-5.4c-4.9,2.7-3.2,6.9-3.2,6.9L185.1,266.6z"/>
	</g>
	<g>
		<path class="st2" d="M264,295.9c17.7,0,32-14.3,32-32c0-17.7-14.3-32-32-32s-32,14.3-32,32C232,281.5,246.4,295.9,264,295.9z
			 M264,250c7.8,0,14.2,6.3,14.2,14.2c0,6.4-4.2,11.8-10,13.5c-0.7-0.2-0.7-0.8-0.7-0.8s0.1-3.1,0.1-4.2c0-1.1-0.9-2.3-0.9-2.3
			c5.5-0.4,6.4-4.1,6.4-6.7c0-2.6-1.5-4-1.5-4c0.5-2.2-0.1-3.6-0.1-3.6c-2.5,0.3-3.8,1.5-3.8,1.5s-1.6-0.6-3.7-0.6
			c-2.1,0-3.4,0.6-3.4,0.6c-2-1.7-3.9-1.5-3.9-1.5c-0.6,1.8,0,3.7,0,3.7c-1.6,1.6-1.5,4.3-1.5,4.3c0.2,6.3,6.4,6.4,6.4,6.4
			c-0.9,0.8-0.7,2-0.7,2c-0.1,0-0.3,0.1-0.6,0.3c-0.4,0.2-1.2,0-1.2,0c-1.7,0-2.2-1.2-2.5-1.6c-0.4-0.4-0.7-0.8-1.1-1.1
			c-0.4-0.3-1.7-0.5-1.6,0.1c0.1,0.6,1.2,0.3,1.8,1.9c0.7,1.6,1.3,2.1,2.2,2.4c0.9,0.3,2.8,0,2.8,0v2.8c-0.2,0.4-0.6,0.4-0.6,0.4
			l0,0c-5.8-1.8-10-7.2-10-13.6C249.9,256.4,256.2,250,264,250z"/>
	</g>
	<g>
		<path class="st2" d="M42,370.3c17.7,0,32-14.3,32-32c0-17.7-14.3-32-32-32s-32,14.3-32,32C10,356,24.3,370.3,42,370.3z
			 M41.5,325.7c8.4,0,13.2,4.7,13.2,9.5s-2.8,6.7-5.4,8.2c-2.6,1.5-6.4,0.5-6.4,0.5c0.5,2.1-0.8,7.2-4.9,7.1
			c-4.1-0.1-3.6-2.1-3.6-2.8c0-0.8,0.1-2,0.1-2l1.2,0.5c2.2,1.1,2.1-1.9,2.1-1.9v-11.9c2.7-0.5,4.7,0.1,4.7,0.1v7.2
			c1.2,0.5,2.1,0.6,3.5,0.5c1.4-0.1,4-1.4,4-4.6c0-3.2-3.4-6.2-8.2-6.2c-4.9,0-7.9,3.7-7.9,6c0,2.2,1.3,3.4,1.3,3.4l-3.7,2.7
			c0,0-2.1-2.2-2-6.1C29.6,330.8,33.1,325.7,41.5,325.7z"/>
	</g>
	<g>
		<path class="st2" d="M412,306.3c-17.7,0-32,14.3-32,32c0,17.7,14.3,32,32,32s32-14.3,32-32C444,320.7,429.7,306.3,412,306.3z
			 M407.5,325.6c5.1-2,9.8,0.2,10,0.3c0.2,0.1,0.2,0.3,0.2,0.3v8.5c0,0.3-0.2,0.1-0.2,0.1l-9.9-9
			C407.3,325.7,407.5,325.6,407.5,325.6z M398.9,341.6c0,0-3.1-9.2,6.7-15.2c0,0,0.2-0.2,0.4,0l4.8,4.4c0,0,0.1,0.1,0,0.2
			l-11.7,10.6C399.2,341.7,399,341.9,398.9,341.6z M405.1,349.7c0,0,0,0.2-0.3,0c0,0-3.4-1.8-5.2-6.1c0,0-0.1-0.3,0-0.3l5.3-4.8
			c0,0,0.2-0.1,0.2,0.1V349.7z M424,344.4c0,0-1.6,3.8-6.2,6.1c-4.6,2.3-8.9,1.2-11.2,0.2c0,0-0.1-0.1-0.1-0.3v-6c0,0,0-0.2,0.2-0.2
			h17.2C423.9,344.2,424.2,344.1,424,344.4z M424.8,342.6c-0.1,0.2-0.2,0.2-0.2,0.2h-5.4c-0.2,0-0.2-0.2-0.2-0.2V327
			c0-0.3,0.4,0,0.4,0c5,3.4,6.2,8.2,6.2,11C425.6,340.9,424.9,342.5,424.8,342.6z"/>
	</g>
	<g>
		<path class="st2" d="M412,518.3c17.7,0,32-14.3,32-32s-14.3-32-32-32c-17.7,0-32,14.3-32,32S394.3,518.3,412,518.3z M404.7,502.5
			l13.7-13.7l4,4L404.7,502.5z M430.5,485.5c0,0,0.7,0.6,0.7,1.1c0,0.5-0.5,1.1-0.9,1.4l-5.9,3.3l-4.2-4.2l4.7-4.7L430.5,485.5z
			 M404.3,470.4l18.6,10.4l-4.5,4.5l-15-15.1C403.8,470.2,404.1,470.3,404.3,470.4z M400.8,500v-27.2c0,0,0.1-0.8,0.6-1.2l15.3,15.4
			L402,501.8c-0.2,0-0.5-0.1-0.6-0.2C400.6,500.9,400.8,500.4,400.8,500z"/>
	</g>
	<g>
		<circle class="st2" cx="415.6" cy="403.3" r="0.7"/>
		<circle class="st2" cx="408.3" cy="403.3" r="0.7"/>
		<path class="st2" d="M412,380.2c-17.7,0-32,14.3-32,32c0,17.7,14.3,32,32,32s32-14.3,32-32C444,394.5,429.7,380.2,412,380.2z
			 M403.3,416.3c0,1-0.8,1.8-1.8,1.8c-1,0-1.8-0.8-1.8-1.8V409c0-1,0.8-1.8,1.8-1.8c1,0,1.8,0.8,1.8,1.8V416.3z M420,419.1
			c-0.2,1.9-1.9,1.9-1.9,1.9h-1.3v4.1c-0.2,1.7-1.8,1.6-1.8,1.6c-1.8-0.1-1.8-1.8-1.8-1.8v-4h-2.4v3.9c0,0.5-0.3,1.8-1.8,1.8
			c-1.5,0-1.8-1.6-1.8-1.6V421h-1.5c-1.6-0.2-1.7-1.7-1.7-1.7v-11.8h16V419.1z M403.8,406.8c0.2-2.8,1.9-5.1,4.2-6.4c0,0,0,0,0,0
			l-1.3-2.3c-0.1-0.1,0-0.3,0.1-0.3c0.1-0.1,0.3,0,0.3,0.1l1.3,2.3c0,0,0,0,0,0c1.1-0.5,2.3-0.8,3.5-0.8c1.3,0,2.4,0.3,3.5,0.8
			l1.3-2.3c0.1-0.1,0.2-0.2,0.3-0.1c0.1,0.1,0.2,0.2,0.1,0.3l-1.3,2.3c2.3,1.3,3.9,3.6,4.2,6.4H403.8z M424.2,416.3
			c0,1-0.8,1.8-1.8,1.8c-1,0-1.8-0.8-1.8-1.8V409c0-1,0.8-1.8,1.8-1.8c1,0,1.8,0.8,1.8,1.8V416.3z"/>
	</g>
	<g>
		<path class="st2" d="M337.7,380.2c-17.7,0-32,14.3-32,32c0,17.7,14.3,32,32,32c17.7,0,32-14.3,32-32
			C369.7,394.5,355.4,380.2,337.7,380.2z M343.3,398.9c0,6-5.3,6.1-5.3,6.1C338,399.4,343.3,398.9,343.3,398.9z M346.9,422.4
			c-1.6,2.2-3.2,3.8-5.9,2.6c-2.7-1.2-4.2-0.3-5.3,0.1c-1.1,0.3-2.2,1-4.4-1.4c-2.2-2.4-3.4-5.7-3.8-7.5c-0.4-1.7-0.9-6.2,1.8-9
			c2.7-2.7,5.8-1.8,6.5-1.5c0.7,0.3,2.1,0.7,2.1,0.7c0.9,0.1,1.4-0.3,2.7-0.8c1.3-0.5,3-0.6,4.9,0.2c1.9,0.8,2.5,2.1,2.5,2.1
			s-2.8,1.2-2.8,5.1c0,3.8,3.5,5.3,3.5,5.3S348.5,420.2,346.9,422.4z"/>
	</g>
	<g>
		<path class="st2" d="M337.7,454.4c-17.7,0-32,14.3-32,32s14.3,32,32,32c17.7,0,32-14.3,32-32S355.4,454.4,337.7,454.4z
			 M350.6,491.3h-3.6c0,0,0.8,1.5,1.5,2.7c0.7,1.2,1.6,2.5,1.6,2.5s0.5,0.7,0,1.2c-0.5,0.5-1.8,1.3-2.6,0.1l-2.1-4.9l-1.1-1.7h-12.5
			l-1.7,3.1c0,0-0.2,0.3-0.5,0.6c0,0-1.9,1.6-3,2.9c0,0-0.5,0.6-0.7,0.4c-0.2-0.2,0-0.7,0.1-1c0.1-0.3,0.7-2.9,0.7-2.9
			s0.2-1.1,0.4-1.4l0.9-1.6h-2.7v-4.9h5.6l3.6-6.5c0,0,0.7-1.5,2.4-0.5c1.6,1,0.5,2.4,0.5,2.4l-2.6,4.6h6.7c0,0-3.6-7.6-4.6-10
			c0,0-0.7-1.7-0.4-2c0.4-0.3,0.8-0.2,2.1,1.9c0,0,1.6,2.4,2.9,4.6c1.3,2.1,2.7,4.5,3.2,5.5h5.9V491.3z"/>
	</g>
	<g>
		<path class="st2" d="M41.3,444.2c17.7,0,32-14.3,32-32c0-17.7-14.3-32-32-32c-17.7,0-32,14.3-32,32
			C9.3,429.9,23.7,444.2,41.3,444.2z M27.3,397.5h28v28h-28V397.5z"/>
		<rect x="29.8" y="399.9" class="st2" width="11.6" height="11.6"/>
		<rect x="41.3" y="411.6" class="st2" width="11.6" height="11.6"/>
	</g>
	<g>
		<path class="st2" d="M116.1,306.3c-17.7,0-32,14.3-32,32c0,17.7,14.3,32,32,32c17.7,0,32-14.3,32-32
			C148.1,320.7,133.8,306.3,116.1,306.3z M125.3,329.9c2.4,0,4.4,2,4.4,4.4c0,2.4-2,4.4-4.4,4.4c-2.4,0-4.4-2-4.4-4.4
			C120.9,331.8,122.9,329.9,125.3,329.9z M115.2,331.6c2.2,0,3.9,1.8,3.9,3.9c0,2.2-1.8,3.9-3.9,3.9c-2.2,0-3.9-1.8-3.9-3.9
			C111.2,333.4,113,331.6,115.2,331.6z M105.9,333.1c2,0,3.5,1.6,3.5,3.5c0,2-1.6,3.5-3.5,3.5c-2,0-3.5-1.6-3.5-3.5
			C102.4,334.7,104,333.1,105.9,333.1z M109.8,346.5c0,0-0.1,0.3-0.4,0.3h-7.1c0,0-0.4-0.1-0.4-0.4v-1.5c0,0,0.2-3.7,3.9-3.9
			c0,0,1.4-0.1,2.7,1.2c1.3,1.3,1.2,2.7,1.2,2.7V346.5z M119.5,346.4c0,0-0.1,0.4-0.4,0.4h-7.9c0,0-0.4-0.1-0.4-0.4v-1.7
			c0,0,0.2-4.2,4.4-4.3c0,0,1.6-0.1,3,1.3c1.4,1.4,1.3,3,1.3,3V346.4z M130.2,346.4c0,0-0.1,0.4-0.5,0.4H121c0,0-0.4-0.1-0.4-0.4
			v-1.9c0,0,0.2-4.6,4.9-4.8c0,0,1.8-0.1,3.3,1.4c1.5,1.5,1.5,3.3,1.5,3.3V346.4z"/>
	</g>
	<g>
		<path class="st2" d="M190.1,370.3c17.7,0,32-14.3,32-32c0-17.7-14.3-32-32-32c-17.7,0-32,14.3-32,32
			C158.1,356,172.4,370.3,190.1,370.3z M176.1,335h3.1v3.6h21.6V335h3.1v6.7h-27.8V335z"/>
	</g>
	<g>
		<polygon class="st2" points="277.7,343.2 272.1,335.6 277.2,328.5 272.4,328.5 268.7,333.9 265.9,333.9 265.9,328.5 262,328.5 
			262,343.2 265.9,343.2 265.9,337.4 268.7,337.4 272.7,343.2 		"/>
		<polygon class="st2" points="255.4,328.5 250.6,328.5 255.8,335.6 250.1,343.2 255,343.2 259.1,337.4 260.8,337.4 260.8,334 
			259.1,334 		"/>
		<path class="st2" d="M264,370.3c17.7,0,32-14.3,32-32c0-17.7-14.3-32-32-32s-32,14.3-32,32C232,356,246.4,370.3,264,370.3z
			 M247.1,325.5H281v25.7l-10.9-5.5h-23V325.5z"/>
	</g>
	<g>
		<path class="st2" d="M337.7,306.3c-17.7,0-32,14.3-32,32c0,17.7,14.3,32,32,32c17.7,0,32-14.3,32-32
			C369.7,320.7,355.4,306.3,337.7,306.3z M352.3,355.6h-12.5c-0.3,0-0.2-0.3-0.2-0.3l0-5c0-0.2,0.2-0.3,0.2-0.3l5.6-2.8
			c0.2-0.1,0.1-0.2,0.1-0.2l-0.5-1.1c0-0.1-0.2,0-0.2,0l-4.9,2.5c-0.3,0.1-0.3-0.2-0.3-0.2v-1.6c0-0.2,0.2-0.3,0.2-0.3l3.1-1.6
			c0.1-0.1,0.1-0.2,0.1-0.2l-0.6-1.1c-0.1-0.1-0.2,0-0.2,0l-2.3,1.2c-0.3,0.1-0.3-0.2-0.3-0.2v-3c0-0.2-0.2-0.2-0.2-0.2H336
			c-0.2,0-0.2,0.2-0.2,0.2v5c0,0.3-0.3,0.2-0.3,0.2l-2.4-1.6c-0.1-0.1-0.2,0-0.2,0l-0.7,1c-0.1,0.2,0.1,0.2,0.1,0.2l3.4,2.4
			c0.1,0.1,0.1,0.2,0.1,0.2v6.9c0,0.2-0.2,0.2-0.2,0.2h-11.8c-0.3,0-0.1-0.3-0.1-0.3l14.2-34.1c0,0,0.1-0.2,0.2-0.2
			c0.1,0,0.2,0.2,0.2,0.2l14.2,33.9C352.6,355.5,352.3,355.6,352.3,355.6z"/>
	</g>
	<g>
		<path class="st2" d="M264,444.2c17.7,0,32-14.3,32-32c0-17.7-14.3-32-32-32s-32,14.3-32,32C232,429.9,246.4,444.2,264,444.2z
			 M265.2,398.9h12.1V411h-12.1V398.9z M265.2,413.4h12.1v12.1h-12.1V413.4z M250.8,398.9h12.1V411h-12.1V398.9z M250.8,413.4h12.1
			v12.1h-12.1V413.4z"/>
	</g>
	<g>
		<path class="st2" d="M264,518.4c17.7,0,32-14.3,32-32s-14.3-32-32-32s-32,14.3-32,32S246.4,518.4,264,518.4z M262.6,475.8
			l13.7-2.7v12.2l-13.7,0.1V475.8z M262.6,487.5l13.7,0.1v12.2l-13.7-2.8V487.5z M251.9,477.7l8.6-1.8v9.5l-8.6,0V477.7z
			 M251.9,487.3h8.6v9.4l-8.6-1.7V487.3z"/>
	</g>
	<g>
		<path class="st2" d="M190.1,518.4c17.7,0,32-14.3,32-32s-14.3-32-32-32c-17.7,0-32,14.3-32,32S172.4,518.4,190.1,518.4z
			 M180.9,472.4l6.4,1.9v15.8l-6.1,5.5l14.8-7.8l-4-1.8l-3-6.3l14.1,4.3v6.9l-16,9.6l-6.4-4.5V472.4z"/>
	</g>
	<g>
		<path class="st2" d="M42.1,454.4c-17.7,0-32,14.3-32,32s14.3,32,32,32c17.7,0,32-14.3,32-32S59.8,454.4,42.1,454.4z M54.4,489.3
			c0,0.1-0.1,0.3-0.3,0.3h-9v9c0,0.1-0.1,0.3-0.3,0.3h-5.7c-0.1,0-0.3-0.1-0.3-0.3v-9h-9c-0.1,0-0.3-0.1-0.3-0.3v-5.7
			c0-0.1,0.1-0.3,0.3-0.3h9v-9c0-0.1,0.1-0.3,0.3-0.3H45c0.1,0,0.3,0.1,0.3,0.3v9h9c0.1,0,0.3,0.1,0.3,0.3V489.3z"/>
	</g>
	<g>
		<path class="st2" d="M116.1,454.4c-17.7,0-32,14.3-32,32s14.3,32,32,32c17.7,0,32-14.3,32-32S133.8,454.4,116.1,454.4z
			 M112.4,486.3c0,0.3,0,0.6-0.1,0.8l9,4.6c0.8-0.8,2-1.3,3.2-1.3c2.6,0,4.7,2.1,4.7,4.7s-2.1,4.7-4.7,4.7c-2.6,0-4.7-2.1-4.7-4.7
			c0-0.1,0-0.2,0-0.4l-9.3-4.7c-0.8,0.6-1.8,1-2.8,1c-2.6,0-4.7-2.1-4.7-4.7c0-2.6,2.1-4.7,4.7-4.7c1.2,0,2.3,0.4,3.1,1.2l9-4.7
			c0-0.2,0-0.3,0-0.5c0-2.6,2.1-4.7,4.7-4.7c2.6,0,4.7,2.1,4.7,4.7c0,2.6-2.1,4.7-4.7,4.7c-1.2,0-2.3-0.5-3.1-1.2l-9,4.6
			C112.4,486,112.4,486.1,112.4,486.3z"/>
	</g>
	<g>
		<path class="st2" d="M197.7,415.6c2.8,0,3.1-2.3,3.1-3.2c0-0.9-0.1-3.6-2.9-3.6s-5.6,3.5-5.6,3.5S195,415.6,197.7,415.6z"/>
		<path class="st2" d="M190.1,444.2c17.7,0,32-14.3,32-32c0-17.7-14.3-32-32-32c-17.7,0-32,14.3-32,32
			C158.1,429.9,172.4,444.2,190.1,444.2z M181.8,404.9c4.3-0.5,8,4.5,8.2,4.9l0,0c0,0,3.8-5.5,8.2-4.9c4.5,0.6,6.4,3.4,6.4,7.5
			c0,4.1-2.9,7.2-6.9,7.2c-3.9,0-6.7-3.3-7.8-4.6l0,0c-1.1,1.3-3.9,4.6-7.8,4.6c-3.9,0-6.9-3.1-6.9-7.2
			C175.4,408.3,177.4,405.4,181.8,404.9z"/>
		<path class="st2" d="M182.3,415.6c2.8,0,5.4-3.3,5.4-3.3s-2.9-3.5-5.6-3.5s-2.9,2.8-2.9,3.6C179.2,413.3,179.5,415.6,182.3,415.6z
			"/>
	</g>
	<g>
		<path class="st2" d="M115.3,411.7c-2,0-2.1,2-2.1,2.6c0,0.6,0.3,2.3,2.3,2.3c2,0,3.9-2.4,3.9-2.4S117.3,411.7,115.3,411.7z"/>
		<path class="st2" d="M127,411.7c-2,0-4.1,2.6-4.1,2.6s1.9,2.4,3.9,2.4c2,0,2.3-1.7,2.3-2.3C129.1,413.7,129,411.7,127,411.7z"/>
		<path class="st2" d="M116.1,380.2c-17.7,0-32,14.3-32,32c0,17.7,14.3,32,32,32c17.7,0,32-14.3,32-32
			C148.1,394.5,133.8,380.2,116.1,380.2z M126.9,419.5c-2.9,0-4.9-2.4-5.7-3.4l0,0c-0.8,0.9-2.9,3.4-5.7,3.4c-2.1,0-3.9-1.3-4.6-3.1
			c-0.1,0.1-0.1,0.3-0.2,0.4c-0.7,1.1-2,2.9-4.9,2.9c-2.9,0-5.5-1.7-5.5-4.7h3c0,0,0.3,2.3,2.4,2.3c0,0,2.6-0.1,2.6-2.9
			c0-2.8-3.3-3.8-4.8-1.5h-2.8l1.5-8.2h8.4v2.5h-6.2l-0.6,3.4c0,0,0.8-1.2,3.2-1.2c2.1,0,3.3,1.5,3.9,2.7c0.6-1.8,2-3,4.4-3.3
			c3.2-0.4,5.9,3.3,6,3.6l0,0c0,0,2.8-4,6.1-3.6c3.3,0.4,4.7,2.5,4.7,5.5C132,417.3,129.8,419.5,126.9,419.5z"/>
	</g>
	<g>
		<path class="st2" d="M409.9,553.7h-4.8c0,0-0.8,0-0.8,1v4.5c0,0,0,1,0.9,1l3.4,0c0,0,0.2,1.7-1.5,2.1c0,0-0.6,0.2-0.6,0.6
			c0,0.4,0,1.1,0,1.1s0.1,0.5,0.6,0.5c0.5-0.1,3.5-0.7,3.7-4.3v-5.5C410.7,554.8,410.9,553.7,409.9,553.7z"/>
		<path class="st2" d="M412,528.6c-17.7,0-32,14.3-32,32s14.3,32,32,32s32-14.3,32-32S429.7,528.6,412,528.6z M426.3,560.9
			c-0.5,4.4-4,8.6-4,8.6c-3.6,5-10.1,7.8-10.1,7.8c-0.2,0.1-0.2-0.2-0.2-0.2l0-4.5c-8,0-14.6-6.5-14.6-14.6
			c0-8.1,6.5-14.6,14.6-14.6c8.1,0,14.6,6.5,14.6,14.6C426.6,559.1,426.5,560,426.3,560.9z"/>
		<path class="st2" d="M418.9,553.7h-4.8c0,0-0.8,0-0.8,1v4.5c0,0,0,1,0.9,1l3.4,0c0,0,0.2,1.7-1.5,2.1c0,0-0.6,0.2-0.6,0.6
			c0,0.4,0,1.1,0,1.1s0.1,0.5,0.6,0.5c0.5-0.1,3.5-0.7,3.7-4.3v-5.5C419.7,554.8,419.9,553.7,418.9,553.7z"/>
	</g>
	<g>
		<path class="st2" d="M337.7,528.6c-17.7,0-32,14.3-32,32s14.3,32,32,32c17.7,0,32-14.3,32-32S355.4,528.6,337.7,528.6z
			 M338.3,574.1c-2.4,0-4.7-0.6-6.8-1.8l-7.6,2.4l2.5-7.4c-1.3-2.2-2-4.7-2-7.2c0-7.7,6.3-13.9,13.9-13.9s13.9,6.3,13.9,13.9
			C352.2,567.8,346,574.1,338.3,574.1z"/>
		<path class="st2" d="M338.3,548.4c-6.4,0-11.7,5.2-11.7,11.7c0,2.3,0.7,4.5,1.9,6.5l0.3,0.5l-1.4,4.2l4.4-1.4l0.4,0.3
			c1.8,1.1,3.9,1.7,6.1,1.7c6.4,0,11.7-5.2,11.7-11.7C350,553.7,344.7,548.4,338.3,548.4z M344.2,565.8c-1,0.6-1.9,0.9-2.9,0.7
			c-1-0.2-3.5-0.8-6.1-3.2c0,0-2.3-2.2-3.2-4.4c-0.9-2.2-0.1-3.8,0.7-4.6c0,0,0.5-0.5,1-0.5c0.4,0,0.8,0,1,0.1
			c0.2,0.1,0.2,0.2,0.3,0.3c0,0,1.1,2.5,1.2,2.7c0.1,0.2,0.1,0.5-0.1,0.8c-0.2,0.3-0.8,0.9-0.9,1.1c-0.1,0.1-0.2,0.3,0,0.7
			c0.3,0.4,1.4,2.6,4.6,4c0,0,0.3,0.2,0.6-0.1c0.3-0.3,1-1.2,1.1-1.3c0.1-0.1,0.4-0.4,0.8-0.2c0.4,0.2,2.7,1.3,2.7,1.3
			s0.3,0.1,0.3,0.6C345.3,564.1,345.3,565.1,344.2,565.8z"/>
	</g>
	<g>
		<path class="st2" d="M405.3,639.1H419c3.5-0.4,3.5-3.6,3.5-3.6v-11.2c-0.2-3.5-3.6-3.7-3.6-3.7h-16.3c-3.3,0-3.7,3.6-3.7,3.6v10.9
			c0,1.7,1.2,3.6,2.5,3.8c1.3,0.2,0.7,1.2,0.7,1.2l-0.9,3.3l3.1-3.9C404.8,639,405.3,639.1,405.3,639.1z M414.8,627.4h2.1
			c1.8,0.1,1.5,1.3,1.5,1.3c-0.2,1.7-2.3,1.4-2.3,1.4h-2L414.8,627.4z M416.2,631.4c1.8,0.1,1.5,1.3,1.5,1.3
			c-0.2,1.7-2.3,1.4-2.3,1.4h-2l0.6-2.7H416.2z M410,625h2.1c1.8,0.1,1.5,1.3,1.5,1.3c-0.2,1.7-2.3,1.4-2.3,1.4h-2L410,625z
			 M409.2,628.9h2.1c1.8,0.1,1.5,1.3,1.5,1.3c-0.2,1.7-2.3,1.4-2.3,1.4h-2L409.2,628.9z M410.6,633c1.8,0.1,1.5,1.3,1.5,1.3
			c-0.2,1.7-2.3,1.4-2.3,1.4h-2l0.6-2.7H410.6z M404.6,625h2.1c1.8,0.1,1.5,1.3,1.5,1.3c-0.2,1.7-2.3,1.4-2.3,1.4h-2L404.6,625z
			 M403.2,631.6l0.6-2.7h2.1c1.8,0.1,1.5,1.3,1.5,1.3c-0.2,1.7-2.3,1.4-2.3,1.4H403.2z"/>
		<path class="st2" d="M411.5,602.7c-17.7,0-32,14.3-32,32c0,17.7,14.3,32,32,32c17.7,0,32-14.3,32-32
			C443.5,617,429.2,602.7,411.5,602.7z M426.9,638.9c0,0-0.1,3.8-4.2,4.4l2.4,6.3c0,0,0.1,0.4-0.1,0.6s-0.5,0-0.6-0.1l-5.9-6.8
			h-10.6c0,0-2.2-0.1-3.2-1.5l-4.7,6c0,0-0.3,0.5-0.9,0.4c-0.5,0-0.9-0.6-0.7-1.2l1.9-6.5c0,0-3.2-1.5-3.2-4.8v-11.3
			c0,0-0.2-2,1.5-3.7c1.7-1.7,3.5-1.7,3.7-1.7h16.5c0,0,2.1,0,3.5,1.4c0.5,0.5,0.8,1,1.1,1.5l0.1,0c0,0,3.3,0.9,3.3,4.4V638.9z"/>
		<path class="st2" d="M424.1,635.8c0,0,0,2-1.3,3.3c-1.3,1.3-2.6,1.7-4,1.7h-13.3l-0.3,0.4c0.2,0.2,1.4,1.3,2.6,1.3h10.9l4.8,5.5
			l-1.8-4.6c0,0-0.2-0.6,0-0.7c0.2-0.2,0.4-0.1,0.6-0.1c0,0,1.7-0.2,2.7-1.4c1-1.2,0.9-2.3,0.9-2.3V626c0,0-0.2-2.2-2.2-3.2
			c0.2,0.6,0.2,1.1,0.2,1.5V635.8z"/>
	</g>
	<g>
		<path class="st2" d="M337.7,602.7c-17.7,0-32,14.3-32,32c0,17.7,14.3,32,32,32c17.7,0,32-14.3,32-32
			C369.7,617,355.4,602.7,337.7,602.7z M332.3,634.3c-0.4,2.9-3.9,2.4-3.9,2.4h-3.4l1-4.6h3.6C332.7,632.4,332.3,634.3,332.3,634.3z
			 M329.7,630.2h-3.4l1-4.6h3.6c3,0.2,2.6,2.2,2.6,2.2C333.2,630.6,329.7,630.2,329.7,630.2z M340.2,641.4c-0.4,2.9-3.9,2.5-3.9,2.5
			h-3.4l1-4.6h3.6C340.5,639.4,340.2,641.4,340.2,641.4z M341.4,634.3c-0.4,2.9-3.9,2.4-3.9,2.4h-3.4l1-4.6h3.6
			C341.8,632.4,341.4,634.3,341.4,634.3z M338.9,630.2h-3.4l1-4.6h3.6c3,0.2,2.6,2.2,2.6,2.2C342.4,630.6,338.9,630.2,338.9,630.2z
			 M349.7,638.7c-0.4,2.9-3.9,2.4-3.9,2.4h-3.4l1-4.6h3.6C350.1,636.7,349.7,638.7,349.7,638.7z M350.9,631.8
			c-0.4,2.9-3.9,2.4-3.9,2.4h-3.4l1-4.6h3.6C351.3,629.8,350.9,631.8,350.9,631.8z"/>
	</g>
	<g>
		<path class="st2" d="M263.2,558.2c0,0-2.1-0.4-2.1-1.6c0-1.2,1.5-1.7,2.6-1.7c1.1,0,2.3,0,3.2,1.6c0.9,1.6,1.7,1.7,2.7,1.2
			c0,0,0.9-0.5,0.7-1.8c-0.2-1.3-2.2-3.6-6.7-3.4c-4.5,0.2-6,2.6-6,4.6c0,2,1.8,3.6,3.9,4.1c2.1,0.5,3.6,0.9,4.2,1.1
			c0.6,0.2,1.7,0.7,1.7,1.9c0,1.2-1.5,2.1-3.1,2.1c-1.5,0-2.6-0.2-3.4-1.9c-0.8-1.7-1.2-1.7-1.9-1.8c-0.7-0.1-2.4,0.7-1.4,3
			c1.1,2.3,4.1,3.4,7,3.2c2.9-0.2,6.3-1.3,6.3-5.2C270.9,559.5,266.3,559.1,263.2,558.2z"/>
		<path class="st2" d="M264.1,528.6c-17.7,0-32,14.3-32,32s14.3,32,32,32c17.7,0,32-14.3,32-32S281.7,528.6,264.1,528.6z
			 M269.5,572.9c-1.2,0-2.3-0.3-3.3-0.8c-0.7,0.1-1.4,0.2-2.1,0.2c-6.5,0-11.7-5.3-11.7-11.8c0-0.8,0.1-1.6,0.2-2.4
			c-0.6-1-1-2.2-1-3.5c0-3.7,3.1-6.7,6.8-6.7c1.3,0,2.6,0.4,3.6,1c0.7-0.1,1.4-0.2,2.1-0.2c6.5,0,11.7,5.3,11.7,11.8
			c0,0.9-0.1,1.7-0.3,2.5c0.5,0.9,0.8,2,0.8,3.1C276.4,569.9,273.3,572.9,269.5,572.9z"/>
	</g>
	<g>
		<path class="st2" d="M199.7,558v5.4h1.7c0.3,0,0.3-0.3,0.3-0.3v-5.4H200C199.6,557.6,199.7,558,199.7,558z"/>
		<path class="st2" d="M178.3,558.1v5.3h1.7c0.4,0,0.4-0.4,0.4-0.4v-5.3h-1.7C178.3,557.7,178.3,558.1,178.3,558.1z"/>
		<path class="st2" d="M190.1,592.6c17.7,0,32-14.3,32-32s-14.3-32-32-32c-17.7,0-32,14.3-32,32S172.4,592.6,190.1,592.6z
			 M196.8,555.9c0,0,0-0.4,0.4-0.4h7.5v13.3c0,0-0.1,0.3-0.4,0.3h-7.5v-1.8c0,0,0-0.4,0.4-0.4h4.6v-1.3h-5V555.9z M188.1,555.9
			c0,0,0-0.4,0.4-0.4h7.5v13.3c0,0-0.1,0.3-0.4,0.3h-7.5v-1.8c0,0,0-0.4,0.4-0.4h4.6v-1.3h-5V555.9z M184.2,552.2c0,0,0-0.4,0.4-0.4
			h2.6v1.8c0,0,0,0.4-0.5,0.4h-2.5V552.2z M184.2,555.9c0,0,0-0.4,0.4-0.4h2.6v9.8c0,0,0,0.4-0.5,0.4h-2.5V555.9z M175.4,555.9
			c0-0.3,0.4-0.4,0.4-0.4h4.6v-3.3c0-0.3,0.3-0.4,0.3-0.4h2.6l0,13.5c0,0.2-0.4,0.3-0.4,0.3h-7.6V555.9z"/>
		<path class="st2" d="M191,558v5.4h1.7c0.3,0,0.3-0.3,0.3-0.3v-5.4h-1.7C191,557.6,191,558,191,558z"/>
	</g>
	<g>
		<path class="st2" d="M42.1,528.6c-17.7,0-32,14.3-32,32c0,17.7,14.3,32,32,32c17.7,0,32-14.3,32-32
			C74.1,542.9,59.8,528.6,42.1,528.6z M27.5,548H38l-10.5,24.9V548z M44.7,573l-2.1-4.9h-5.3l4.8-11.2l7.1,16.1H44.7z M56.7,572.9
			l-10.8-25h10.8V572.9z"/>
	</g>
	<g>
		<path class="st2" d="M116.1,528.6c-17.7,0-32,14.3-32,32c0,17.7,14.3,32,32,32c17.7,0,32-14.3,32-32
			C148.1,542.9,133.8,528.6,116.1,528.6z M129.2,569.7c-3.6,3.5-8.5,3.3-8.5,3.3h-11.1c-1.9,0.1-6.6-0.8-9.3-5.4
			c-2.7-4.6-0.5-9.8-0.5-9.8c4.1-7.7,11.6-6.1,11.6-6.1c4.9-5,11.1-3.8,11.1-3.8c9.4,1.9,10.8,9.9,10.8,12.3
			C133.2,562.7,132.7,566.3,129.2,569.7z"/>
		<path class="st2" d="M120.5,550.2c-3.9,0.2-6.4,2.3-6.4,2.3c1.2,0.5,2.1,1.3,2.1,1.3c1.1-0.6,2.5-1.1,2.5-1.1
			c3.6-0.9,8.8,0.9,9.7,6c0.9,5.1-2.4,7.6-2.4,7.6c-6.1,4.7-10.7,0-10.7,0l-5.2-5.2c-0.2-0.2-0.8-0.5-1.5,0.2
			c-0.6,0.6-0.1,1.4-0.1,1.4l4.3,4.3c1.5,1.5,3.3,3,5.3,3.3c2,0.4,6.8,1,10.5-3.4c3.6-4.4,2.1-9.2,1-11.5
			C128.3,553.1,124.5,550,120.5,550.2z"/>
		<path class="st2" d="M110.6,568.3c-3.8,0.6-5.7-2.2-5.7-2.2c-3.5-4.5,0.5-8.2,0.5-8.2c3.8-3.8,8.2-0.2,8.2-0.2l3.7,3.8
			c0,0,0.7,0.8,1.5,0c0.8-0.8-0.1-1.7-0.1-1.7l-2.3-2.3c-0.9-1-5.4-5.3-10.5-2.5c-5.1,2.8-5.6,8.2-3.3,11.9c2.3,3.7,6.4,3.8,7.2,3.8
			c0.8,0.1,3.4,0.1,3.4,0.1C112.5,570.3,110.6,568.3,110.6,568.3z"/>
	</g>
	<g>
		<path class="st2" d="M190.1,602.7c-17.7,0-32,14.3-32,32c0,17.7,14.3,32,32,32c17.7,0,32-14.3,32-32
			C222.1,617,207.7,602.7,190.1,602.7z M188,636.1l0.1,9.5c0,0-0.9-0.5-2.7,0l0.2-9.2l-7.4-12.4c0,0,1.4,0.2,2.7-0.1l5.8,9.5
			l5.8-9.4c0,0,1.7,0.2,2.7,0L188,636.1z M197.6,645.5c-0.8,0-1.5-0.7-1.5-1.5c0-0.8,0.7-1.5,1.5-1.5c0.8,0,1.5,0.7,1.5,1.5
			C199.1,644.8,198.4,645.5,197.6,645.5z M201.5,627.7l-2.8,13c0,0-0.7-0.2-1.1-0.2l1.4-15c0,0,0.2-1.9,1.9-1.6
			C202.6,624.2,201.5,627.7,201.5,627.7z"/>
	</g>
	<g>
		<path class="st2" d="M264,666.7c17.7,0,32-14.3,32-32c0-17.7-14.3-32-32-32s-32,14.3-32,32C232,652.4,246.4,666.7,264,666.7z
			 M268.1,621c2.2,0,4,1.8,4,4c0,2.2-1.8,4-4,4c-2.2,0-4-1.8-4-4C264.1,622.8,265.9,621,268.1,621z M260.4,637c2-4,0.9-4.6,4-7.7
			c0,0,3.5,3.6,11.2,2.3l0.7,3c0,0-3.3,1.3-8,0.7c0,0-1.4-0.1-1.4,1c0,0,0.1,0.5,0.6,1c0,0,2.7,2.7,3.6,3.9c0.8,1.1,2.1,3.3,2.8,6
			l-3.1,1.3c0,0-2-4.4-6.3-7.4c0,0-1.1-0.7-1.9,0.1c0,0-1.9,2-4.2,3.3c-2.3,1.2-5.6,1.3-5.6,1.3l-0.9-3.5
			C251.8,642.2,258.4,640.9,260.4,637z"/>
	</g>
	<g>
		<path class="st2" d="M42.1,602.7c-17.7,0-32,14.3-32,32c0,17.7,14.3,32,32,32c17.7,0,32-14.3,32-32
			C74.1,617,59.8,602.7,42.1,602.7z M51.9,646.8c0,0-6.6-0.1-9.6-0.1c-3,0-5.2-0.1-10.9,0.2v-1.4c0,0,1.6-0.4,2-0.5
			c0.4-0.1,1.4-0.1,1.4-1.6c0,0,0.1-4,0.1-9s-0.1-8.3-0.1-8.3s0.1-1.4-1.7-1.6l-1.7-0.3v-1.4c0,0,6,0.1,11.2,0.1
			c5.2,0,8.5-0.3,8.9-0.4c0,0-0.3,4.3-0.4,6.9h-1.3c0,0-0.4-1.8-0.8-2.9c-0.4-1.1-1.1-2-2.4-2h-7.4c0,0-0.6,0.1-0.6,0.7v8.7
			c0,0,3.6,0,5-0.2c1.4-0.2,1.3-0.5,1.6-1.5l0.5-2h1.4c0,0-0.1,3.5-0.1,4.4s0.1,3.9,0.1,4.3h-1.5c0,0-0.1-0.7-0.4-1.6
			c-0.2-1-0.4-1.6-1.7-1.7c0,0-3.9-0.1-5-0.1v7.5c0,0-0.2,2.1,2.4,2.1h5.6c0,0,2.7,0,3.6-2.7l1.2-2.7h1.3
			C52.7,639.7,52.2,644.4,51.9,646.8z"/>
	</g>
	<g>
		<path class="st2" d="M122.3,632.4c0-2.8-1.5-4.9-1.5-4.9c-2.1-3.1-5.2-2.8-5.2-2.8c-1,0-3,0.5-4.7,2.6c-1.6,2.2-1.6,5.1-1.6,5.1v4
			c0.1,2.8,1.5,4.8,1.5,4.8c2.1,3,5,2.8,5,2.8c0.8,0,1.4-0.2,1.4-0.2c-1.2-2.1-3-2.2-3-2.2c-0.2,0-0.2-0.3-0.2-0.3v-2.1
			c0-0.4,0.3-0.3,0.3-0.3c3.9,0,6.1,2.6,6.1,2.6c1.9-2.5,1.8-5.3,1.8-5.3V632.4z"/>
		<path class="st2" d="M116.1,602.7c-17.7,0-32,14.3-32,32c0,17.7,14.3,32,32,32c17.7,0,32-14.3,32-32
			C148.1,617,133.8,602.7,116.1,602.7z M125.8,642.4c0,0-1.6,2-3.3,2.9c0,0,0.1,1.2,2.9,2.3c0,0,0.4,0,0.4,0.4v1.7
			c0,0,0,0.3-0.2,0.3c0,0-2.6,0.5-4.6-0.6c0,0-1.5-0.9-2.2-2.5c0,0-4.1,1.3-8.3-0.8c-4.2-2.1-5.7-5-6.7-7.3c-1-2.2-1.3-6.1,0.5-10.2
			c1.9-4.1,6.7-7.4,11.5-7.3c0,0,4.6-0.2,8.3,3.1c3.6,3.3,4.3,6.8,4.5,8.8C128.8,635.2,128.3,639.2,125.8,642.4z"/>
	</g>
	<g>
		<path class="st2" d="M46.9,711.9h-9.8c-1.6,0.4-1.3,1.7-1.3,1.7c0,1.1,1.3,1.4,1.3,1.4h9.9c1.4-0.3,1.3-1.7,1.3-1.7
			C48.4,712.1,46.9,711.9,46.9,711.9z"/>
		<path class="st2" d="M37.1,705.6h5.2c0,0,1.4-0.1,1.4-1.5c0-1.5-1.4-1.7-1.4-1.7h-4.9c-1.6,0.3-1.5,1.7-1.5,1.7
			C35.9,705.3,37.1,705.6,37.1,705.6z"/>
		<path class="st2" d="M42.1,676.7c-17.7,0-32,14.3-32,32c0,17.7,14.3,32,32,32c17.7,0,32-14.3,32-32
			C74.1,691,59.8,676.7,42.1,676.7z M55.1,714.2c0,0-0.4,6.4-7.4,7.5H36.6c0,0-6.8-0.5-7.5-8V708v-4.1c0,0-0.1-3.2,2.5-5.8
			c2.6-2.6,5.8-2.4,5.8-2.4H43c0,0,3.5,0.4,5.6,3c2.1,2.6,1.9,5.2,1.9,5.2s0,0.8,0.5,1.3c0.5,0.5,1.2,0.4,1.2,0.4h1.5
			c0,0,0.6,0,1,0.4c0.4,0.4,0.5,0.9,0.5,1.2V714.2z"/>
	</g>
	<g>
		<path class="st2" d="M196.6,720.5c-0.2,0.1-1.2,0.7-3.2,0.9c-2,0.2-3.4-0.5-3.9-0.8c-0.4-0.2-0.7,0-0.7,0c-0.4,0.4,0,0.6,0,0.6
			c1.2,1,2.9,1.1,4.6,1c1.7-0.1,3.2-1,3.4-1.1c0.2-0.1,0.4-0.2,0.3-0.6C197.1,720.3,196.8,720.4,196.6,720.5z"/>
		<path class="st2" d="M190.1,740.7c17.7,0,32-14.3,32-32c0-17.7-14.3-32-32-32c-17.7,0-32,14.3-32,32
			C158.1,726.4,172.4,740.7,190.1,740.7z M185.7,697.6c0.5-0.4,1.4-1,1.8-1.3c0.5-0.5,1.1-1,1.4-3c0,0,0-0.6,0.3-0.3
			c0.3,0.3,2.1,2.8,4.1,3.8c1.2,0.6,1.7,0.8,2.1,1.1c5,2.1,8.5,7,8.5,12.7c0,7.6-6.2,13.8-13.8,13.8c-7.6,0-13.8-6.2-13.8-13.8
			C176.3,704.6,180.2,699.4,185.7,697.6z"/>
		<path class="st2" d="M186.2,717.9c2.4,0.1,5.9-2.4,6.5-2.7c0.6-0.3,1.4-1,2.3-0.9c0.9,0.1,1.7,1.1,3.8,3c2.1,1.9,3.5-2.1,3.7-3
			c0.2-0.9,0.6-2.4-0.6-3.5c-1.2-1.1-3.3,0.7-3.7,1c-0.4,0.2-2.2,1.6-3.2,1.6c-1.1,0.1-3.1-1.7-3.8-2.1c-0.6-0.5-3.2-2.2-6.1-0.8
			c-2.8,1.4-2.7,4.1-2.7,4.1C182.5,716.9,183.8,717.8,186.2,717.9z"/>
		<path class="st2" d="M192.5,718.9c0.3-0.2,1.4-0.9,1.9-0.8c0,0,1-0.1,1.5,0.8c0,0,0.2,0.4,0.5,0.2c0.3-0.2,0.2-0.4,0.1-0.6
			c-0.1-0.2-0.3-1.2-1.9-1.2c-1.6,0-2.5,1-2.8,1.2s-0.3,0.5-0.1,0.6C191.8,719.3,192.2,719.1,192.5,718.9z"/>
	</g>
	<g>
		<path class="st2" d="M411.5,676.7c-17.7,0-32,14.3-32,32c0,17.7,14.3,32,32,32c17.7,0,32-14.3,32-32
			C443.5,691,429.2,676.7,411.5,676.7z M408.1,701.7l10.2,6l-1.3,2.3l-10.2-6.1L408.1,701.7z M405.4,707.5l11.4,3.1l-0.6,2.5
			l-11.4-3.1L405.4,707.5z M404.2,712.8l11.8,1.1l-0.2,2.6l-11.8-1.1L404.2,712.8z M403.9,717.2h11.9v2.5h-11.9V717.2z M419.8,723.7
			h-19.5v-12.2h2v10.3h15.6v-10.4h2V723.7z M418.7,707.3l-6.7-9.7l2.1-1.4l6.7,9.7L418.7,707.3z M421.3,705.8l-2-11.6l2.5-0.4
			l2,11.6L421.3,705.8z"/>
	</g>
	<g>
		<path class="st2" d="M337.7,676.7c-17.7,0-32,14.3-32,32c0,17.7,14.3,32,32,32c17.7,0,32-14.3,32-32
			C369.7,691,355.4,676.7,337.7,676.7z M351.1,701.5l-12.1,8.2h12.1L327,725.9v-8.3l12.1-7.9H327l11.9-8.2H327v-8h24.1l-12.2,8
			H351.1z"/>
	</g>
	<g>
		<path class="st2" d="M42.1,750.7c-17.7,0-32,14.3-32,32c0,17.7,14.3,32,32,32c17.7,0,32-14.3,32-32
			C74.1,765,59.8,750.7,42.1,750.7z M42,776.2c0,0-1.5,0.4-1.5,1.7v10.2c0,0-0.4,5.9-6.6,6.3c0,0-4.5,0.5-6.7-4.3
			c0,0-0.5-1.4-0.5-2.5l0-4.4H32v4.4c0,0,0.3,1.5,1.5,1.5s1.7-1.1,1.7-1.3v-10c0,0-0.3-2.7,2.5-5.3c2.8-2.6,8-2.1,10.1,1.3
			c0,0,1.2,1.5,1.2,3.8v2l-3.2,1l-2-1v-1.8C43.7,777.9,43.7,776.2,42,776.2z M57.5,788c0,0-0.3,6.3-7,6.5c0,0-3.5,0.3-5.7-3.2
			c0,0-1.1-1.6-1.1-3.5v-4.5l2,0.9l3.2-0.9v4.4c0,0,0.1,1.6,1.6,1.6c1.5,0,1.6-1.4,1.6-1.4v-4.5h5.3V788z"/>
	</g>
	<g>
		<path class="st2" d="M116.1,676.7c-17.7,0-32,14.3-32,32c0,17.7,14.3,32,32,32s32-14.3,32-32C148.1,691,133.8,676.7,116.1,676.7z
			 M128.8,714.1c-0.7,1.6-1.7,3.1-2.9,4.4c-1.3,1.3-2.7,2.3-4.4,2.9c-1.7,0.7-3.5,1.1-5.4,1.1c-1.9,0-3.7-0.4-5.4-1.1
			c-1.6-0.7-3.1-1.7-4.4-2.9s-2.3-2.7-2.9-4.4c-0.7-1.7-1.1-3.5-1.1-5.4c0-1.9,0.4-3.7,1.1-5.4c0.7-1.6,1.7-3.1,2.9-4.4
			c1.3-1.3,2.7-2.3,4.4-2.9c1.7-0.7,3.5-1.1,5.4-1.1c1.9,0,3.7,0.4,5.4,1.1c1.6,0.7,3.1,1.7,4.4,2.9c1.3,1.3,2.3,2.7,2.9,4.4
			c0.7,1.7,1.1,3.5,1.1,5.4C129.8,710.6,129.5,712.4,128.8,714.1z"/>
		<path class="st2" d="M116.1,695.6c-7.2,0-13.1,5.9-13.1,13.1c0,7.2,5.9,13.1,13.1,13.1c7.2,0,13.1-5.9,13.1-13.1
			C129.2,701.5,123.3,695.6,116.1,695.6z M104.3,708.7c0-1.7,0.4-3.3,1-4.8l5.6,15.4C107,717.3,104.3,713.3,104.3,708.7z
			 M116.1,720.4c-1.1,0-2.2-0.2-3.3-0.5l3.5-10.1l3.7,9.9C118.8,720.2,117.4,720.4,116.1,720.4z M117.8,703.2c0.2,0,1.1-0.1,1.3-0.1
			c0.2,0,0.5-0.2,0.5-0.6c0-0.4-0.5-0.4-0.5-0.4c-0.3,0-2.5,0.2-3.2,0.2c-0.7,0-2.8-0.1-3-0.2c-0.2,0-0.6,0.1-0.6,0.5
			c0,0.4,0.4,0.5,0.4,0.5l1.2,0.1l1.8,5l-2.6,7.7l-4.2-12.6c-0.1-0.2,0.1-0.1,0.1-0.1c0.1,0,1-0.1,1-0.1s0.7,0,0.6-0.6
			c-0.1-0.6-0.7-0.4-0.7-0.4c-2.1,0.2-3.7,0.1-3.7,0.1l-0.1,0c2.1-3.3,5.8-5.4,9.9-5.4c3.1,0,5.9,1.2,8,3.1c-0.6,0-1.2,0.2-1.5,0.5
			c-0.7,0.8-1.2,1.7,0.4,4.3c1.7,2.6,0.8,4.8,0.8,4.8l-1.9,6.2L117.8,703.2z M126.5,703.3c0-0.1,0-0.1,0-0.2
			c0.9,1.7,1.4,3.5,1.4,5.5c0,4.3-2.3,8.1-5.8,10.2c0.9-2.6,2.9-8.4,3-8.8c0.2-0.6,0.8-2.2,0.8-2.2
			C126.7,705.9,126.5,703.3,126.5,703.3z"/>
	</g>
	<g>
		<path class="st2" d="M116.1,825.5c-17.7,0-32,14.3-32,32c0,17.7,14.3,32,32,32c17.7,0,32-14.3,32-32
			C148.1,839.8,133.8,825.5,116.1,825.5z M130.1,851.8c-0.2,1.1-1.2,2.7-4,3.6c0,0,1.6,7.4-5.7,11.6c-7.3,4.2-17.9-0.1-18.3-9.6
			c0,0-0.4-8.8,9-11.8c0,0,3.1-1,6.8,0.5v6.5c0,0-1-0.6-2.5-0.6c-1.6,0-4.7,0.9-5.8,3.3c-1.1,2.4-1.1,4,0.9,5.7
			c2,1.7,8.2,1.5,9.7-3.9v-9.9c0,0,3,1.6,5,2.5c1.9,0.8,3.5,1,4.1,1.1C129.9,850.8,130.3,850.7,130.1,851.8z"/>
	</g>
	<g>
		<path class="st2" d="M42.1,825.5c-17.7,0-32,14.3-32,32c0,17.7,14.3,32,32,32c17.7,0,32-14.3,32-32
			C74.1,839.8,59.8,825.5,42.1,825.5z M48.2,865.2c0,0-2.2-0.4-4.4-6.2l-1.9-4.3c0,0-1.4-3.9-6-3.9c-4.6,0-6.2,4.4-6.2,6.1
			c0,1.8,1.5,5.7,6,6c0,0,3.9,0.1,5.9-3.2c0,0,0.3-0.4,0.4,0l1.1,2.4c0,0,0.2,0.3,0,0.4c0,0-2.4,3.2-7.1,3.2c-4.7,0-9.2-3.8-9.2-8.9
			c0-5.2,4.3-8.9,9.5-8.9c5.2,0,7.3,3.5,8.5,6.1c1.2,2.6,2.4,5.4,2.6,5.9c0.2,0.5,1,2.6,2.7,2.9c1.7,0.3,4.4-0.2,4.4-2.6
			c0,0,0.3-1.5-2.4-2.2c-2.7-0.7-6.2-1.9-6.1-5.3c0.1-3.5,2.7-4.6,5.1-4.6c2.4,0,3.6,1.1,4.5,2.6c0,0,0.1,0.3-0.1,0.4l-1.8,0.9
			c0,0-0.3,0.1-0.5-0.1c-0.2-0.3-0.9-1.2-2.4-1.2c-1.4,0-2.1,1.1-2.1,2.1c0,1,0.9,1.6,3.3,2.3c2.4,0.6,5.3,1.7,5.3,5.5
			S52.7,867,48.2,865.2z"/>
	</g>
	<g>
		<path class="st2" d="M193.6,846.3c-7.7-2.6-15.1,3.7-14.6,11.3c0,0,0,1.4,1,1.7c1.1,0.3,6.6-0.8,5-10.3c0,0-0.2-0.5,0.4-0.3
			c0,0,4.7,0.8,10,8.2c0,0,2.8,4.4,5.1,2.6C202.7,857.9,201.3,848.9,193.6,846.3z"/>
		<path class="st2" d="M190.1,825.5c-17.7,0-32,14.3-32,32c0,17.7,14.3,32,32,32s32-14.3,32-32C222.1,839.8,207.7,825.5,190.1,825.5
			z M190.1,871.1c-7.8,0-14.2-6.3-14.2-14.2c0-7.8,6.3-14.2,14.2-14.2s14.2,6.3,14.2,14.2C204.2,864.8,197.9,871.1,190.1,871.1z"/>
	</g>
	<g>
		<path class="st2" d="M264.1,825.5c-17.7,0-32,14.3-32,32c0,17.7,14.3,32,32,32s32-14.3,32-32C296.1,839.8,281.8,825.5,264.1,825.5
			z M247.6,862c0,0.2-0.1,0.4-0.2,0.4c-0.1,0-0.1-0.3-0.1-0.4c0-0.1-0.2-1.5-0.2-1.9c0-0.3,0.2-1.6,0.2-1.6c0-0.1,0.1-0.3,0.2-0.3
			c0.1,0,0.1,0.2,0.1,0.2s0.2,0.9,0.2,1.6C247.8,860.8,247.6,862,247.6,862z M248.9,863c0,0.3-0.1,0.6-0.3,0.6
			c-0.1,0-0.2-0.4-0.2-0.6c0-0.2-0.3-2.2-0.3-2.7c0-0.5,0.3-2.8,0.3-2.8c0-0.2,0.1-0.4,0.2-0.4s0.2,0.4,0.2,0.4s0.3,1.8,0.3,2.8
			C249.2,861.2,248.9,863,248.9,863z M250.3,863.5c0,0.3-0.1,0.6-0.3,0.6c-0.1,0-0.2-0.4-0.2-0.6s-0.3-2.7-0.3-3.2
			c0-0.5,0.3-3.3,0.3-3.3c0-0.2,0.1-0.4,0.2-0.4c0.2,0,0.2,0.4,0.2,0.4s0.3,2.3,0.3,3.3C250.5,861.2,250.3,863.5,250.3,863.5z
			 M251.6,863.6c0,0.3-0.1,0.6-0.3,0.6c-0.1,0-0.2-0.4-0.2-0.6c0-0.2-0.3-2.9-0.3-3.4c0-0.5,0.3-3.5,0.3-3.5c0-0.2,0.1-0.4,0.2-0.4
			c0.2,0,0.2,0.4,0.2,0.4s0.3,2.4,0.3,3.4C251.9,861.2,251.6,863.6,251.6,863.6z M253,863.6c0,0.3-0.1,0.6-0.3,0.6
			c-0.1,0-0.2-0.4-0.2-0.6c0-0.2-0.3-2.9-0.3-3.4c0-0.5,0.3-3.3,0.3-3.3c0-0.2,0.1-0.4,0.2-0.4c0.2,0,0.2,0.4,0.2,0.4
			s0.3,2.2,0.3,3.2C253.3,861.2,253,863.6,253,863.6z M254.4,863.6c0,0.3-0.1,0.6-0.3,0.6c-0.1,0-0.2-0.4-0.2-0.6
			c0-0.2-0.3-3.5-0.3-4c0-0.5,0.3-4.9,0.3-4.9c0-0.2,0.1-0.4,0.2-0.4c0.2,0,0.2,0.4,0.2,0.4s0.3,3.8,0.3,4.9
			C254.6,860.7,254.4,863.6,254.4,863.6z M255.9,863.4c-0.1,0.7-0.2,0.9-0.4,0.9c-0.2,0-0.3-0.8-0.3-1.1c0-0.3-0.2-3.2-0.2-4.2
			c0,0,0.2-4.2,0.2-4.7c0-0.5,0.1-1.1,0.3-1.1s0.4,0.4,0.4,1.1s0.2,3.8,0.2,4.6C256,859.7,255.9,862.7,255.9,863.4z M257.2,863.5
			c-0.1,0.7-0.2,0.8-0.4,0.8c-0.2,0-0.3-0.7-0.3-1c0-0.3-0.2-3.4-0.2-4.4c0,0,0.2-4.7,0.2-5.1c0-0.5,0.1-1.1,0.3-1.1
			c0.2,0,0.4,0.4,0.4,1.1s0.2,4.3,0.2,5.1C257.3,859.6,257.3,862.7,257.2,863.5z M258.7,863.3c-0.1,0.7-0.2,1-0.4,1
			c-0.2,0-0.3-0.7-0.4-1c0-0.3-0.1-3.3-0.2-4.4c0,0,0.1-4.7,0.1-5.1c0-0.5,0.2-1.3,0.4-1.3c0.2,0,0.4,0.6,0.4,1.3
			c0,0.7,0.1,4.3,0.1,5C258.8,859.6,258.7,862.6,258.7,863.3z M260,863.8c0,0,0,0.5-0.3,0.5c-0.3,0-0.4-0.4-0.4-0.5
			c0-0.2-0.1-5.4-0.1-5.9c0-0.5,0.2-4.2,0.2-4.5c0-0.3,0.1-0.9,0.4-0.9c0.3,0,0.4,0.5,0.4,0.7c0,0.2,0.1,4.1,0.1,4.9
			C260.2,858.9,260.3,862.3,260,863.8z M261.5,863.7c-0.1,0.5-0.2,0.6-0.4,0.6c-0.2,0-0.4-0.4-0.4-0.8c0-0.4-0.1-4.6-0.1-5.6
			c0,0,0.1-3.6,0.2-4.5c0,0,0-0.7,0.4-0.7c0.3,0,0.5,0.4,0.5,0.7c0,0,0.1,3.3,0.1,5.1S261.6,863.2,261.5,863.7z M262.9,863.7
			c-0.1,0.6-0.2,0.6-0.4,0.6c-0.1,0-0.5-0.2-0.5-0.8s-0.1-4.9-0.1-6.3c0-1.4,0.1-4.9,0.1-5.1c0-0.2,0.1-0.8,0.5-0.8
			c0.3,0,0.4,0.4,0.4,0.6c0,0.3,0.1,4.1,0.1,5.5C263.1,858.9,263,863.1,262.9,863.7z M264.4,863.6c0,0.5-0.2,0.7-0.5,0.7
			c-0.3,0-0.5-0.3-0.5-0.6c0-0.3-0.2-3.4-0.2-4.9s0.1-6.2,0.1-6.6s0-1.5,0.5-1.5c0.5,0,0.5,1,0.5,1.4c0,0.4,0.1,6.1,0.1,6.1
			C264.6,859.2,264.4,863.1,264.4,863.6z M277.2,864.4c0,0-11.3,0-11.8,0s-0.6-0.6-0.6-0.6v-13.3c0-0.3,3.1-2,6.7,0
			c3.7,2.1,3.6,5.7,3.6,5.7c1.6-0.8,5.8-0.1,5.8,3.7C281,863.9,277.2,864.4,277.2,864.4z"/>
	</g>
	<g>
		<path class="st2" d="M411.5,825.5c-17.7,0-32,14.3-32,32c0,17.7,14.3,32,32,32c17.7,0,32-14.3,32-32
			C443.5,839.8,429.2,825.5,411.5,825.5z M425.1,856.6c-2,2.3-5.4,2.3-5.4,2.3h-5.8l3.6,10.8h-12.4v-3.5l-8.2,2.5v-9.6l8.2,2.3v-2.5
			c-1.5,0-3.7-0.5-5.5-2.6c-1.8-2-2.6-6.1-0.3-9.1c2.3-3,5.8-2.9,5.8-2.9c6.6,0.2,7.3,6.3,7.3,6.3h0.2c1-5,5.6-7.4,9.8-5.8
			c4.2,1.6,4.7,6,4.7,6.5C427.1,851.9,427.1,854.3,425.1,856.6z"/>
		<circle class="st2" cx="420" cy="851.5" r="2.1"/>
		<circle class="st2" cx="405.1" cy="851.5" r="2.1"/>
	</g>
	<g>
		<path class="st2" d="M116.1,750.7c-17.7,0-32,14.3-32,32c0,17.7,14.3,32,32,32s32-14.3,32-32C148.1,765,133.8,750.7,116.1,750.7z
			 M115.7,795c-11,0-14.4-5.6-14.4-5.6s2.4-18.8,14.7-18.8c12.9,0,14.8,18.8,14.8,18.8S126.8,795,115.7,795z"/>
		<path class="st2" d="M121.4,777.1c0,0-1.6-1.9-2.7-0.1c-1.2,1.8-3.1,4.3-3.6,4.7c-0.5,0.4-1.9,1.5-3.3,0c-1.5-1.5-2.7-3.1-4.3-1.2
			c-1.6,1.9-3.4,4.9-4.3,7.7c0,0,2.2,4.9,12.7,4.9c10.4,0,13.3-4.8,13.3-4.8S128.4,783.2,121.4,777.1z"/>
	</g>
	<g>
		<path class="st2" d="M190.1,750.7c-17.7,0-32,14.3-32,32c0,17.7,14.3,32,32,32s32-14.3,32-32C222.1,765,207.7,750.7,190.1,750.7z
			 M183.8,793l-9.8-12h9l6.2,7L183.8,793z M190.4,786.8l-4.8-5l10.4-9.3H206L190.4,786.8z"/>
	</g>
	<g>
		<path class="st2" d="M264.5,750.7c-17.7,0-32,14.3-32,32c0,17.7,14.3,32,32,32c17.7,0,32-14.3,32-32
			C296.5,765,282.2,750.7,264.5,750.7z M279.4,796.9c0,0.7-0.5,1.2-1.2,1.2h-28.2c-0.7,0-1.2-0.5-1.2-1.2v-28.2
			c0-0.7,0.5-1.2,1.2-1.2h28.2c0.7,0,1.2,0.5,1.2,1.2V796.9z"/>
		<path class="st2" d="M275.7,769.8h-9.2c-0.7,0-1.2,0.5-1.2,1.2v11c0,0.7,0.5,1.2,1.2,1.2h9.2c0.7,0,1.2-0.5,1.2-1.2v-11
			C276.9,770.4,276.3,769.8,275.7,769.8z"/>
		<path class="st2" d="M261.6,769.8h-9.2c-0.7,0-1.2,0.5-1.2,1.2v20.1c0,0.7,0.5,1.2,1.2,1.2h9.2c0.7,0,1.2-0.5,1.2-1.2V771
			C262.8,770.4,262.2,769.8,261.6,769.8z"/>
	</g>
	<g>
		<path class="st2" d="M345.3,780c-1.5,0-1.8,1.2-1.9,2c0,0,2.1-0.4,3.4,0.4C346.8,782.4,346.8,780,345.3,780z"/>
		<path class="st2" d="M337.7,750.7c-17.7,0-32,14.3-32,32c0,17.7,14.3,32,32,32c17.7,0,32-14.3,32-32
			C369.7,765,355.4,750.7,337.7,750.7z M330.9,767.6c-0.3,0.3-0.3,1.6-0.3,1.6v3c0,0.8-0.6,0.7-0.6,0.7s-1.5,0-2.7,0
			c-1.2,0-2.2,0.5-2.2,0.5L330.9,767.6z M351.5,784.3c-0.1,1.9-0.5,5.2-0.9,7.4c-0.5,2.2-1.2,6-3.7,6.9c0,0-0.7,0.2-1.9,0.2
			c-1.2,0-5,0.3-6.2-1.2c0,0-1-0.9-0.9-2.9c0-2,0.1-3.8,3-4.1c0,0,1.4-0.1,2,0c0,0,0.3,0.1,0.2,0.3c-0.1,0.2-0.2,0.8-0.2,1
			c0,0.2,0.1,0.6,0.1,0.7c0,0.1,0,0.3-0.3,0.3c0,0-2.1-0.3-2.1,1.3c0.1,1.6,2.1,1.3,2.5,1.3c0.4,0,2.4,0,2.7-0.5
			c0.3-0.5,0.5-1.5,0.4-2.7c-0.1-1.2-0.1-3.4-2.4-3.5c0,0-4.3-0.2-5-1.7c0,0-0.6-0.8-0.5-2.7c0,0,0-0.3-0.1-0.3
			c-0.1,0-0.1,0.1-0.1,0.3c0,0.1,0,1.5-0.2,2.5c-0.2,1-0.5,2.3-1.2,2.6c-0.7,0.4-1.6,0.1-1.9,0c-0.3,0-3.6-0.5-6-1.3
			c-2.4-0.7-2.2-1.3-3-3.8c-0.8-2.5-1.3-6.8-1.3-7.6c-0.1-0.7-0.3-3.1,2.6-3.3h2.9c0,0,0.9,0,1.2-0.3c0.4-0.4,0.3-0.6,0.3-1
			c0-0.4,0-3.2,0-3.2s-0.2-2.2,2.7-2.5c2.9-0.3,5.8,0.2,6.2,2.5c0,0,3.7-0.1,5.9,0.3c2.1,0.4,3.2,0.5,4,1.6c0.8,1.1,0.7,3.3,0.8,4.5
			C351.2,776.7,351.6,782.4,351.5,784.3z"/>
	</g>
	<g>
		<circle class="st2" cx="407.4" cy="776.6" r="2.2"/>
		<circle class="st2" cx="417.7" cy="774.6" r="2.2"/>
		<path class="st2" d="M411.5,750.7c-17.7,0-32,14.3-32,32c0,17.7,14.3,32,32,32c17.7,0,32-14.3,32-32
			C443.5,765,429.2,750.7,411.5,750.7z M397.2,791.5l3.1-3l0.9,4.6L397.2,791.5z M408.2,796.1l-5.2-2.2l-1.3-6.8l4.1-3.9l4.2-0.8
			l2.3,12.9L408.2,796.1z M414.2,795l-2.8-15c0,0-1.3,1.4-3,1.7c-1.7,0.2-4.8-0.2-5.9-3.7c0,0-1.1-3.4,2.1-5.8c0,0,3.1-2.2,6.3,0.3
			c0,0,1.3,1.1,2.3-0.4c1-1.4,2.3-2.6,4.2-2.7c1.9-0.1,4.4,0.6,5.5,3.9c1,3.4-2.5,8.2-7.6,5.8l2.7,15.1L414.2,795z M426.2,791.2
			c-1,2-2.5,2.1-2.5,2.1l-4.1,0.7l-2.3-12.9l4.3-0.8c0.4-0.1,1.2,0.1,2.1,0.5c0.9,0.5,2.4,2.5,2.8,4.2
			C426.9,786.8,427.1,789.2,426.2,791.2z"/>
	</g>
	<g>
		<path class="st2" d="M337.7,889.5c17.7,0,32-14.3,32-32c0-17.7-14.3-32-32-32c-17.7,0-32,14.3-32,32
			C305.7,875.1,320,889.5,337.7,889.5z M327.8,848.6c0,0,0-2.7,1.9-4c2-1.3,5-0.6,6.1,1.6c0,0,0.4,0.6,0.4,2.1v4.4l4.8-6.9
			c0,0,1.2-1.8,3.4-1.9c2.3-0.1,4.5,2.1,4.3,4.2c-0.1,2.1-1,2.8-1,2.8l-4,5.7l5.3,6.8c0,0,1.1,1.1,0.6,3.1c-0.4,1.9-1.9,3.5-4.5,3.4
			c0,0-1.4,0.1-2.5-1.2l-6.5-8.1l0,4.9c0,0,0,2.6-1.8,3.7c-1.8,1.1-4.8,1.3-6.3-1.9c0,0-0.3-1.1-0.4-1.8V848.6z"/>
	</g>
	<g>
		<path class="st2" d="M411.5,899.1c-17.7,0-32,14.3-32,32c0,17.7,14.3,32,32,32c17.7,0,32-14.3,32-32
			C443.5,913.4,429.2,899.1,411.5,899.1z M408.1,935.5c-2.3,0-3.4-1.4-3.4-1.4c0,0.7-0.1,1.1-0.1,1.1h-1.8c0-0.4,0.1-1.8,0.1-3.6
			h-7.5c0,0,0.1,2.7,2.9,2.7c0,0,1.9,0.1,2.4-1.4h1.9c0,0-0.2,1.6-2,2.2c-1.8,0.6-5,0.8-6.6-1.5c0,0-0.6-0.9-0.6-2.4
			c0-1.5,0.6-2.9,2-3.8c1.4-0.8,4.3-0.7,5.5,0.1c1.1,0.7,1.7,1.6,1.9,3.4c0-3.3,0-7.3,0-7.3h1.9v4.6c0.8-1.2,3.7-2,5.6-0.9
			c1.9,1.1,2.4,3.1,2.1,4.9C412,933.9,410.4,935.5,408.1,935.5z M419.4,935.2c-0.1-0.2-0.1-1.1-0.1-1.1c-1.2,1.3-1.7,1.2-3.3,1.4
			c-1.5,0.2-3.9-0.6-3.8-2.5c0-1.9,1.2-2.2,2.2-2.6c1.1-0.4,4.7-0.3,4.7-0.3c0-1.5-0.8-2.1-2.5-2.1c-1.7,0-1.9,1.2-1.9,1.2h-2
			c0,0,0-2.5,4-2.5c4.6,0,4.3,3,4.3,3s0,3.3,0,4c0,0.8,0.1,1.3,0.1,1.3H419.4z M424.8,938.3h-2.1l1.7-3.1L420,927h2.1l3.2,6.3
			l3.2-6.4h2L424.8,938.3z"/>
		<path class="st2" d="M407.6,928c-3,0.1-2.9,2.9-2.9,2.9c0,3.3,3,4.1,4.8,2.6C411.3,932.2,410.7,927.9,407.6,928z"/>
		<path class="st2" d="M398.1,928c-2.5,0-2.7,2.4-2.7,2.4h5.5C400.9,930.3,401,928,398.1,928z"/>
		<path class="st2" d="M414.2,932.8c0.1,1.2,1.4,1.9,3.3,1.3c1.9-0.6,1.7-2.8,1.7-2.8C415,931.3,414.1,931.6,414.2,932.8z"/>
	</g>
	<g>
		<path class="st2" d="M338,899.1c-17.7,0-32,14.3-32,32c0,17.7,14.3,32,32,32s32-14.3,32-32C370,913.4,355.7,899.1,338,899.1z
			 M340.6,923.7c0,0,0.1-0.8-0.5-1.4c-0.7-0.6-2.3-0.6-2.3-0.6c-0.6,0-1.1-0.1-2,0.4c-0.9,0.4-1.3,1.6-1.3,1.6l-4.1-0.6
			c0.2-0.8,1.1-3.1,3.2-3.9c2.2-0.8,4.7-0.6,4.7-0.6c5.1,0,6.1,2,6.4,2.7c0.3,0.7,0.4,2.7,0.4,2.7l-0.1,5.9c0,0.4,0,1.7,0.3,2.8
			c0.3,1.1,0.8,1.9,0.8,1.9h-4.6c-0.1-0.2-0.6-1.7-0.6-1.7c-0.4,0.3-2.4,2.1-5.3,2.1c-2.9,0-5.9-1.2-5.9-4.7c0-3.5,3.6-4.4,6-4.8
			c2.4-0.4,4.9-1,4.9-1L340.6,923.7z M349.7,939.7c-0.4,0.4-4.5,3.6-12,3.6c-7.5,0-11.7-3.6-14.8-6c0,0-0.2-0.4-0.1-0.6
			c0.1-0.2,0.5-0.1,0.6,0.1c0.2,0.2,6.6,4.4,14.4,4.4c7.8,0,11.2-2.3,11.5-2.5c0.3-0.1,0.9-0.3,1.1-0.1
			C350.6,938.8,350.2,939.4,349.7,939.7z M353.3,937.1c0.1,2.5-2,5.2-2.3,5c-0.3-0.2,0-0.8,0-0.8c0.3-0.9,0.7-2,0.9-3
			c0.2-0.9-0.6-1.2-1.1-1.2c-0.5,0-2.7,0.2-2.7,0.2c-0.8,0.1-0.3-0.5-0.3-0.5c2.2-1,4.4-0.9,4.4-0.9
			C353.4,935.9,353.3,937.1,353.3,937.1z"/>
		<path class="st2" d="M334.5,929.8c0,1.3,1.2,2.2,2.6,2.2c1.4,0,2.3-0.6,3-1.3c0.7-0.7,0.6-2.4,0.6-2.4V927
			c-0.5,0.2-3.1,0.6-4.1,0.9C335.6,928.1,334.5,928.5,334.5,929.8z"/>
	</g>
	<g>
		<path class="st2" d="M264,899.1c-17.7,0-32,14.3-32,32c0,17.7,14.3,32,32,32s32-14.3,32-32C296,913.4,281.7,899.1,264,899.1z
			 M254.6,935.8c-0.3-0.6-0.3-2-0.3-2.7c0-0.7,0.1-1.9,0.5-2.6c0.4-0.7,1.3-0.4,1.3-0.4l5.4,2.2c0,0,0.6,0.1,0.6,1
			c0,0.9-0.7,1.1-0.7,1.1l-5.1,1.7C255.7,936.2,254.9,936.3,254.6,935.8z M263,943.7c-1.2,0-4.2-1-4.8-2.1c0,0-0.3-0.6,0.1-1
			l3.9-4.6c0,0,0.5-0.5,1.2-0.2c0.7,0.3,0.7,0.8,0.7,0.9v6C264.1,942.8,264.2,943.7,263,943.7z M263.4,930.3
			c-0.8,0.3-1.4-0.6-1.4-0.6l-5.7-8.9c0,0-0.2-0.4,0-0.8c0.2-0.4,0.9-0.9,2.8-1.5c2-0.6,2.9-0.7,3.6-0.6c0.7,0.1,0.7,0.7,0.7,0.9
			c0,0.2,0.6,10.2,0.6,10.2S264.2,930,263.4,930.3z M266.1,930.7c0.1-0.2,3.3-4.4,3.3-4.4s0.2-0.3,0.4-0.5c0,0,0.5-0.4,1.1,0
			c0.6,0.3,2.4,2.4,2.8,4.2c0,0,0.3,0.8-0.6,1.1c-0.9,0.3-5.7,1.4-5.7,1.4s-0.8,0.2-1.3-0.5C265.7,931.4,266,930.9,266.1,930.7z
			 M273.7,937.9c-0.4,0.9-1.4,2.6-3.2,3.8c0,0-0.6,0.4-1.2-0.3c-0.5-0.8-3.2-5.1-3.2-5.1s-0.3-0.8,0.2-1.2c0.4-0.4,0.7-0.5,1.3-0.4
			l5.5,1.8C273.2,936.6,274.1,937,273.7,937.9z"/>
	</g>
	<g>
		<path class="st2" d="M190.1,899.1c-17.7,0-32,14.3-32,32c0,17.7,14.3,32,32,32s32-14.3,32-32C222.1,913.4,207.7,899.1,190.1,899.1
			z M196.9,933.2c0,0-2.3,1.5-4.8,1.5h-5l-1.6,7.4h-6.4l4.9-22.4h11.1c0,0,6,0.1,6,6.1C201.1,925.8,201,930.4,196.9,933.2z"/>
		<path class="st2" d="M192.9,924.2h-3.5l-1.3,6.2h2.8c1.3,0,4-1,4-3.6C194.8,924.2,192.9,924.2,192.9,924.2z"/>
	</g>
	<g>
		<path class="st2" d="M42.1,899.1c-17.7,0-32,14.3-32,32c0,17.7,14.3,32,32,32c17.7,0,32-14.3,32-32
			C74.1,913.4,59.8,899.1,42.1,899.1z M43,942.6c-2.6,0.4-8.2-0.9-10.2-5.7c-2-4.8-0.8-8.4,1-10.7c0,0,0.8-1.1,1.2-0.8
			c0.3,0.2,0,0.7,0,0.7s-0.4,2.1-0.4,3.2c0,1,0.3,4.1,1.7,4.5c0,0,0.1-4.5,2.1-7.9c2-3.4,4.9-5.6,6.6-6.3c1.7-0.7,4.2-0.4,4.2-0.4
			s2.8,2.2,3.2,11.7C52.8,940.3,45.6,942.3,43,942.6z"/>
	</g>
	<g>
		<path class="st2" d="M116.1,898.9c-17.7,0-32,14.3-32,32c0,17.7,14.3,32,32,32c17.7,0,32-14.3,32-32
			C148.1,913.2,133.8,898.9,116.1,898.9z M132.1,934.2c0,0.3,0.1,0.7,0.1,1c0,2.9-1.7,5.7-4.8,7.7c-3,2-7.1,3.1-11.3,3.1
			c-4.3,0-8.3-1.1-11.3-3.1c-3.1-2-4.8-4.8-4.8-7.7c0-0.4,0-0.7,0.1-1.1c-0.6-0.5-1.9-1.8-1.9-3.7c0-1.9,1.3-4,4-4.1
			c0.1,0,1.7,0,2.8,1c2.9-1.8,6.6-2.9,10.6-3l2.9-8.3l7,1.7c0.5-1.3,1.7-2.2,3.1-2.2c1.8,0,3.3,1.5,3.3,3.3c0,1.8-1.5,3.3-3.3,3.3
			c-1.8,0-3.2-1.4-3.3-3.2l-6-1.5l-2.4,6.7c3.9,0.1,7.6,1.2,10.4,3c1.1-1.1,2.8-1.1,2.8-1.1c2.8,0.1,4,2.2,4,4.1
			C134.1,932.4,132.6,933.8,132.1,934.2z"/>
		<path class="st2" d="M116,925.7c-8.2,0-14.9,4.3-14.9,9.5c0,5.3,6.7,9.5,14.9,9.5s14.9-4.3,14.9-9.5
			C130.9,930,124.2,925.7,116,925.7z M108.3,933.4c0-1.4,1.1-2.5,2.5-2.5c1.4,0,2.5,1.1,2.5,2.5c0,1.4-1.1,2.5-2.5,2.5
			C109.5,935.9,108.3,934.8,108.3,933.4z M122.1,940.3c-0.1,0.1-2.4,2.1-5.9,2.1c-3.5,0-5.9-1.8-6-1.9c-0.3-0.2-0.4-0.7-0.1-1
			c0.2-0.3,0.7-0.4,1-0.1c0,0,2.2,1.6,5.2,1.6c3,0,4.9-1.7,5-1.7c0.3-0.3,0.8-0.2,1,0.1C122.4,939.5,122.4,940,122.1,940.3z
			 M121.5,935.9c-1.4,0-2.5-1.1-2.5-2.5c0-1.4,1.1-2.5,2.5-2.5c1.4,0,2.5,1.1,2.5,2.5C124,934.8,122.9,935.9,121.5,935.9z"/>
		<path class="st2" d="M103.7,928.2c-0.7-0.5-1.6-0.5-1.6-0.5c-2.7,0.1-2.8,2.7-2.8,2.8c0,0.9,0.5,1.7,0.9,2.2
			C100.9,931,102.1,929.5,103.7,928.2z"/>
		<circle class="st2" cx="128.5" cy="919" r="2"/>
		<path class="st2" d="M130.1,927.7c0,0-1,0-1.7,0.5c1.7,1.3,2.8,2.9,3.4,4.5c0.5-0.5,1-1.3,1-2.3
			C132.8,930.4,132.8,927.8,130.1,927.7z"/>
	</g>
	<g>
		<path class="st2" d="M42.1,973c-17.7,0-32,14.3-32,32c0,17.7,14.3,32,32,32c17.7,0,32-14.3,32-32C74.1,987.3,59.8,973,42.1,973z
			 M33.8,993.8c1.2,0,2.3,1,2.3,2.3c0,1.2-1,2.3-2.3,2.3c-1.3,0-2.3-1-2.3-2.3C31.5,994.8,32.5,993.8,33.8,993.8z M51,1015.5
			c-1.2,0-2.3-1-2.3-2.3c0-1.2,1-2.3,2.3-2.3c1.3,0,2.3,1,2.3,2.3C53.2,1014.5,52.2,1015.5,51,1015.5z M56.1,1008.8
			c-0.3,1-0.7,2-1.2,2.9c-0.6-1.5-2.1-2.7-3.8-2.7c0,0-0.1,0-0.1,0c-2.4,0-4.3,1.9-4.3,4.3c0,0.1,0,0.3,0,0.4c0.2,1.7,1.4,3.1,3,3.7
			c-2.2,1.4-4.8,2.2-7.6,2.2c-6.7,0-12.3-4.5-14-10.7c-0.3-1.2-0.5-2.5-0.5-3.8c0-2.8,0.8-5.4,2.1-7.6c0.5,1.6,2,2.7,3.7,2.9
			c0.1,0,0.2,0,0.4,0c2.4,0,4.3-1.9,4.3-4.3c0,0,0,0,0-0.1c0-1.7-1.1-3.2-2.6-3.9c2-1.1,4.3-1.7,6.7-1.7c8,0,14.5,6.5,14.5,14.5
			C56.6,1006.3,56.4,1007.6,56.1,1008.8z"/>
		<path class="st2" d="M52,1005c0-5.4-4.4-9.9-9.9-9.9c-1.5,0-2.8,0.3-4.1,0.9c0,0,0,0,0,0.1c0,2.4-1.9,4.3-4.3,4.3
			c-0.1,0-0.2,0-0.4,0c-0.8,1.4-1.2,3-1.2,4.7c0,1.3,0.3,2.6,0.8,3.8c1.5,3.6,5,6.1,9.1,6.1c1.7,0,3.3-0.4,4.6-1.2
			c0-0.1,0-0.3,0-0.4c0-2.4,1.9-4.3,4.3-4.3c0,0,0.1,0,0.1,0c0-0.1,0.1-0.2,0.1-0.2C51.7,1007.6,52,1006.3,52,1005z"/>
	</g>
	<g>
		<path class="st2" d="M116,973c-17.7,0-32,14.3-32,32c0,17.7,14.3,32,32,32s32-14.3,32-32C148,987.3,133.7,973,116,973z
			 M118.9,1016.6c0,1.3-1.3,2.3-2.9,2.3c-1.6,0-2.9-1-2.9-2.3v-12.7c0-1.3,1.3-2.3,2.9-2.3c1.6,0,2.9,1,2.9,2.3V1016.6z
			 M116.1,998.8c-1.9,0-3.4-1.5-3.4-3.4c0-1.9,1.5-3.4,3.4-3.4c1.9,0,3.4,1.5,3.4,3.4C119.4,997.3,117.9,998.8,116.1,998.8z"/>
	</g>
	<g>
		<path class="st2" d="M190.1,973c-17.7,0-32,14.3-32,32c0,17.7,14.3,32,32,32s32-14.3,32-32C222.1,987.3,207.7,973,190.1,973z
			 M190.1,1019.7c-8.1,0-14.7-6.6-14.7-14.7c0-8.1,6.6-14.7,14.7-14.7s14.7,6.6,14.7,14.7C204.7,1013.1,198.2,1019.7,190.1,1019.7z"
			/>
		<path class="st2" d="M190.1,992.3c-7,0-12.7,5.7-12.7,12.7c0,7,5.7,12.7,12.7,12.7s12.7-5.7,12.7-12.7
			C202.7,998,197.1,992.3,190.1,992.3z M192.5,995.2c0.9-0.1,1.8,1.6,2,3.7c0.3,2.2-0.2,4-1.1,4.1c-0.9,0.1-1.8-1.6-2-3.7
			C191.2,997.2,191.7,995.3,192.5,995.2z M185.2,996.3c0.9-0.1,1.8,1.6,2,3.7c0.3,2.2-0.2,4-1.1,4.1c-0.9,0.1-1.8-1.6-2-3.7
			C183.9,998.3,184.4,996.4,185.2,996.3z M201.3,1004.3c0,0.3-0.3,0.5-0.6,0.5c0,0-0.1,0-0.1,0l-0.3,0c0,0.8-0.1,2.3-0.6,3.8
			c-0.7,2.2-2.5,5.1-6.9,6.2c-1.1,0.3-2.1,0.4-3.1,0.4c-3.4,0-5.6-1.6-7-3.2c-1.5-1.7-2.2-3.6-2.5-4.4l-0.4,0.1c-0.1,0-0.1,0-0.2,0
			c-0.3,0-0.5-0.2-0.6-0.4c-0.1-0.3,0.1-0.6,0.4-0.7l1.9-0.6c0.3-0.1,0.6,0.1,0.7,0.4c0.1,0.3-0.1,0.6-0.4,0.7l-0.3,0.1
			c0.2,0.7,0.9,2.4,2.2,4c2.2,2.5,5.2,3.3,8.9,2.4c3.1-0.8,5.2-2.6,6.1-5.4c0.5-1.5,0.5-2.9,0.5-3.6l-0.5-0.1
			c-0.3,0-0.6-0.3-0.5-0.7c0-0.3,0.3-0.6,0.7-0.5l2,0.3C201.1,1003.7,201.3,1004,201.3,1004.3z"/>
	</g>
	<g>
		<path class="st2" d="M264,973c-17.7,0-32,14.3-32,32s14.3,32,32,32s32-14.3,32-32S281.7,973,264,973z M275.4,996.7l-1.6-0.3
			c0,0-2.3-0.7-2.3,1.5v2.8h3.8v4.5h-3.8v13.1H266v-13.1h-5.1v13.1h-5.5v-13.1h-2.7v-4.4h2.7v-4.2c0,0-0.1-1.8,1.2-3.2
			c1.4-1.4,2.5-1.6,3.8-1.6c1.3,0,4.5,0.4,4.5,0.4v4.4l-2.2-0.2c0,0-2-0.3-2,1.7v2.6h5.3v-4.6c0,0-0.1-1.6,1.1-2.9
			c1.2-1.2,2.5-1.6,3.5-1.6c1,0,4.6,0.3,4.6,0.3V996.7z"/>
	</g>
	<g>
		<path class="st2" d="M338,991.6c-7.4,0-13.4,6-13.4,13.4c0,7.4,6,13.4,13.4,13.4s13.4-6,13.4-13.4
			C351.5,997.6,345.4,991.6,338,991.6z M334.4,993.6v3.8c-1.9,0.7-3.3,2.1-4,4h-3.8C327.4,997.5,330.5,994.4,334.4,993.6z
			 M334.4,1016.4c-3.9-0.8-6.9-3.9-7.8-7.7h3.8c0.7,1.8,2.1,3.3,3.9,3.9V1016.4z M330.8,1005c0-4,3.2-7.2,7.2-7.2
			c4,0,7.2,3.2,7.2,7.2c0,4-3.2,7.2-7.2,7.2C334.1,1012.2,330.8,1009,330.8,1005z M341.6,1016.4v-3.8c1.9-0.6,3.3-2.1,4-3.9h3.8
			C348.6,1012.6,345.5,1015.6,341.6,1016.4z M345.6,1001.4c-0.6-1.9-2.1-3.4-4-4v-3.8c3.9,0.8,7,3.9,7.8,7.8H345.6z"/>
		<path class="st2" d="M338,973c-17.7,0-32,14.3-32,32s14.3,32,32,32s32-14.3,32-32S355.7,973,338,973z M338,1019.7
			c-8.1,0-14.7-6.6-14.7-14.7c0-8.1,6.6-14.7,14.7-14.7c8.1,0,14.7,6.6,14.7,14.7C352.7,1013.1,346.1,1019.7,338,1019.7z"/>
		<path class="st2" d="M338,999.1c-3.3,0-5.9,2.7-5.9,6c0,3.3,2.7,5.9,5.9,5.9s5.9-2.7,5.9-5.9C344,1001.7,341.3,999.1,338,999.1z"
			/>
	</g>
	<g>
		<path class="st2" d="M264,740.7c17.7,0,32-14.3,32-32c0-17.7-14.3-32-32-32s-32,14.3-32,32C232,726.4,246.4,740.7,264,740.7z
			 M255.7,714.2h0.9c0,0,0.8-0.1,0.9-0.7v-9.6c0,0-0.3-0.6-1.1-0.7h-0.7v-2.1h7.1l2.4,8.6l2.3-8.6h7.4v2.4h-1.1l-0.4,0.4v9.4
			c0,0,0.2,0.7,0.7,0.7h0.9v2.2h-6.8v-2.1h1.3v-9.9l-3.6,12h-2.4l-3.1-11.8v9.7h1.3v2h-5.7V714.2z"/>
	</g>
	<g>
		<path class="st2" d="M42.1,1046.7c-17.7,0-32,14.3-32,32s14.3,32,32,32c17.7,0,32-14.3,32-32S59.8,1046.7,42.1,1046.7z
			 M37.7,1083.6l-5.3,2c0,0-1.7,0.6-0.7,1.2c1,0.6,2.9,0.1,3.2-0.1l2.6-1v3c0,0-0.9,0.1-2.8,0.2c-1.9,0-5.4-0.2-7.9-1.7
			s1.1-3.3,2.3-3.7l8.5-3.2V1083.6z M44.2,1070.9v21.1l-5.4-2v-24.8c0,0,6,1.2,8.2,2.2c2.1,1,5.6,2.6,5.6,7.8s-3,5.6-3.9,5.6
			c-0.9,0-1.9-0.6-2.2-0.9v-9.1c0,0-0.3-1.2-1.4-1.2C44.1,1069.6,44.2,1070.7,44.2,1070.9z M53.8,1088.5c-2,0.8-8.5,3.2-8.5,3.2
			v-3.3l9.1-3.5c1.1-0.4,0.5-0.6,0.3-0.9c-0.2-0.3-1.8-0.2-2.5-0.2c-0.7,0-2.8,0.9-3.8,1.3c-1,0.5-3.1,1-3.1,1v-3.2
			c1.7-0.6,3-0.9,3-0.9c1.9-0.3,4.1-0.4,5.6-0.3c1.5,0.1,6.1,1.1,5.9,3.1C59.7,1086.8,55.8,1087.6,53.8,1088.5z"/>
	</g>
	<g>
		<path class="st2" d="M411.5,973c-17.7,0-32,14.3-32,32s14.3,32,32,32c17.7,0,32-14.3,32-32S429.2,973,411.5,973z M411.8,991.3
			c4.4,0,7,1.9,7,1.9c0.3,0.2-0.1,0.3-0.1,0.3c-0.2,0-0.6,0-0.6,0c-2.9,0.2-5.7,2.2-5.7,2.2c-0.2,0.1-0.4,0.2-0.6,0.2
			c-0.2,0-0.5-0.3-0.5-0.3s-1.4-0.8-3-1.5c-1.6-0.7-3.8-0.7-3.8-0.7C405.2,993.2,407.4,991.3,411.8,991.3z M400.8,1012.8
			c-0.2-0.2-0.8-1.3-0.8-1.3c-1.3-2.2-2.2-6.3-1.4-9.9c0.8-3.5,3.9-6.5,3.9-6.5c0.5-0.4,1-0.3,1.2-0.2c0.2,0,1,0.5,1,0.5
			c1.3,0.8,4,3.5,4,3.5c-1.6,1.4-5,6.6-6.1,8.9c-1.2,2.2-1.5,4.9-1.5,4.9C401.3,1013.4,400.8,1012.8,400.8,1012.8z M412.3,1018.7
			c-6.4,0-10.5-4.6-10.5-4.6c0.1-0.7,0.5-2.5,3.5-5.9c3-3.4,6-6,6-6c0.1-0.2,0.4-0.3,0.6-0.3c0.2,0,0.5,0.2,0.5,0.2
			c1.2,1,5.7,5.3,7.4,7.7c1.8,2.4,2.2,4.4,2.2,4.4S417.9,1018.7,412.3,1018.7z M423.1,1012.6c0,0-0.1,0.2-0.3,0.2
			c-0.2,0-0.1-0.7-0.1-0.7s0.1-0.8-0.5-2.3c-0.6-1.5-2.3-5.3-6-9.8l-0.6-0.8c0,0-0.4-0.5,0.1-1c0.5-0.5,2.6-2.6,4.4-3.4
			c0,0,0.6-0.2,0.9,0c0.4,0.2,3.3,2.8,4.4,7.1C426.3,1006.3,425.1,1009.8,423.1,1012.6z"/>
	</g>
	<g>
		<path class="st2" d="M116.9,1069.8c-0.2-0.2-0.5-0.2-0.6,0l-10.5,10.5c-0.2,0.2-0.2,0.5,0,0.6l1.5,1.5h2l9.8-9.8
			c0.2-0.2,0.2-0.5,0-0.6L116.9,1069.8z"/>
		<path class="st2" d="M119,1080.4l-2.2-2.2c-0.2-0.2-0.5-0.2-0.6,0l-6.2,6.2c-0.2,0.2-0.2,0.5,0,0.6l1.5,1.5h2l5.5-5.5
			C119.2,1080.9,119.2,1080.6,119,1080.4z"/>
		<path class="st2" d="M116.5,1046.5c-17.7,0-32,14.3-32,32s14.3,32,32,32s32-14.3,32-32S134.2,1046.5,116.5,1046.5z M133,1083.6
			l-9.1,9.1c0,0-0.4,0.6-1.4,1c-1,0.5-1.6,0.4-1.6,0.4l-8.8,0c0,0-0.9-0.1-1.5-0.4c-0.6-0.3-1.5-1.3-1.5-1.3l-8.3-8.3
			c0,0-2-1.6-2-3.5s1.7-3.5,1.7-3.5l13.1-13.1c0,0,1.2-1.3,3.1-1.3s3.2,1.7,3.2,1.7l13.2,13.2c0,0,1.2,1,1.2,2.7
			S133,1083.6,133,1083.6z"/>
		<path class="st2" d="M116.9,1086.4c-0.2-0.2-0.5-0.2-0.6,0l-2.1,2.1c-0.2,0.2-0.2,0.5,0,0.6l1.5,1.5h2l1.4-1.4
			c0.2-0.2,0.2-0.5,0-0.6L116.9,1086.4z"/>
	</g>
	<g>
		<path class="st2" d="M193.5,1074c0-2.8-2.8-2.8-2.8-2.8H184v5.7h6.6C190.6,1076.9,193.5,1076.8,193.5,1074z"/>
		<path class="st2" d="M190.1,1046.5c-17.7,0-32,14.3-32,32s14.3,32,32,32s32-14.3,32-32S207.7,1046.5,190.1,1046.5z M192.3,1090.3
			h-12.5v-22.6h12.1c0.7,0,5.6,0.8,5.6,5.6c0,4.8-3.8,5.3-3.8,5.3s4.4,0.7,4.4,5.9S192.3,1090.3,192.3,1090.3z M204.9,1074.1
			c0,0-0.4,0.7-2.3,2.1l-1.5-1.3c0,0,1.3-0.5,2.4-2.7c-0.1,0-0.1,0-0.2,0c-1.3,0-2.4-1.1-2.4-2.4c0-1.3,1.1-2.4,2.4-2.4
			c1.3,0,2.3,1,2.4,2.2l0,0C205.7,1069.6,206.6,1071.6,204.9,1074.1z"/>
		<path class="st2" d="M191,1080.6h-7v6h6.9c0,0,3-0.1,3-3C194,1080.7,191,1080.6,191,1080.6z"/>
	</g>
</g>
</svg>
