<?xml version="1.0" standalone="no"?><!DOCTYPE svg PUBLIC "-//W3C//DTD SVG 1.1//EN" "http://www.w3.org/Graphics/SVG/1.1/DTD/svg11.dtd"><svg width="100%" height="100%" viewBox="0 0 48 34" version="1.1" xmlns="http://www.w3.org/2000/svg" xmlns:xlink="http://www.w3.org/1999/xlink" xml:space="preserve" style="fill-rule:evenodd;clip-rule:evenodd;stroke-linejoin:round;stroke-miterlimit:1.41421;"><path id="Shape" d="M45.58,2.46c-1.82,-1.92 -3.86,-1.92 -4.8,-2.04c-6.7,-0.48 -16.78,-0.42 -16.78,-0.42c0,0 -10.04,-0.06 -16.74,0.42c-0.92,0.12 -2.96,0.12 -4.78,2.04c-1.44,1.44 -1.92,4.74 -1.92,4.74c0,0 -0.48,3.9 -0.56,7.76l0,4.06c0.08,3.88 0.56,7.74 0.56,7.74c0,0 0.48,3.3 1.92,4.76c1.82,1.9 4.2,1.84 5.28,2.04c3.76,0.36 15.82,0.44 16.24,0.44c0,0 10.1,0.02 16.8,-0.46c0.92,-0.12 2.96,-0.12 4.78,-2.04c1.44,-1.44 1.92,-4.74 1.92,-4.74c0,0 0.48,-3.88 0.5,-7.74l0,-4.06c-0.04,-3.86 -0.52,-7.76 -0.52,-7.76c0,0 -0.46,-3.3 -1.9,-4.74ZM19.14,24l0,-14.02l12.86,7.28l-12.86,6.74Z" style="fill:#e52d27;"/></svg>